<?xml version="1.0" standalone="no"?>
<!DOCTYPE svg PUBLIC "-//W3C//DTD SVG 20010904//EN"
 "http://www.w3.org/TR/2001/REC-SVG-20010904/DTD/svg10.dtd">
<svg version="1.0" xmlns="http://www.w3.org/2000/svg"
 width="450.000000pt" height="252.000000pt" viewBox="0 0 450.000000 252.000000"
 preserveAspectRatio="xMidYMid meet">
<metadata>
Created by potrace 1.10, written by Peter Selinger 2001-2011
</metadata>
<g transform="translate(0.000000,252.000000) scale(0.100000,-0.100000)"
fill="#000000" stroke="none">
<path d="M750 2234 c0 -11 7 -29 15 -40 19 -25 19 -15 0 27 -10 25 -14 29 -15
13z"/>
<path d="M770 2243 c0 -11 42 -53 53 -53 4 0 7 9 7 20 0 24 11 25 56 4 25 -12
38 -13 47 -5 10 8 29 7 71 -4 69 -18 67 -18 60 -1 -8 20 61 18 100 -3 40 -22
76 -24 76 -5 0 11 -4 13 -17 6 -11 -7 -26 -4 -49 9 -18 10 -52 19 -76 20 -24
2 -47 7 -51 13 -5 6 -6 -1 -3 -16 l6 -27 -37 15 c-48 21 -73 25 -73 14 0 -5
-7 -7 -15 -4 -8 4 -15 1 -15 -5 0 -7 -10 -5 -26 6 -41 26 -64 27 -64 1 l0 -21
-25 23 c-14 13 -25 19 -25 13z"/>
<path d="M678 2233 c-10 -2 -15 -10 -11 -19 7 -20 23 -18 23 4 0 9 4 13 8 7 4
-5 16 -12 26 -13 17 -3 18 -2 7 12 -14 16 -22 17 -53 9z"/>
<path d="M640 2211 c0 -7 5 -21 11 -33 17 -31 5 -31 -36 2 -40 31 -52 33 -41
4 4 -9 9 -14 13 -11 3 4 19 -3 35 -14 16 -12 35 -18 44 -15 13 5 13 10 -2 38
-20 40 -24 45 -24 29z"/>
<path d="M706 2169 c3 -6 20 -19 38 -30 17 -10 25 -19 19 -19 -24 0 -13 -17
22 -36 19 -10 35 -20 35 -22 0 -2 -10 -12 -22 -22 l-22 -18 31 -6 c17 -4 39
-18 47 -31 15 -22 14 -25 -2 -34 -9 -6 -13 -11 -8 -11 5 0 3 -7 -4 -15 -17
-21 -7 -19 50 10 69 35 64 44 -9 17 -9 -3 -12 -1 -7 6 3 6 1 14 -4 17 -7 5 -5
12 7 22 15 13 16 14 1 9 -9 -2 -22 2 -28 10 -7 8 -22 14 -34 15 -18 1 -17 3 7
12 34 14 34 18 -5 38 -38 18 -48 39 -19 39 12 0 21 5 21 10 0 6 -11 10 -25 10
-28 0 -75 20 -75 32 0 4 -5 8 -11 8 -5 0 -7 -5 -3 -11z"/>
<path d="M586 2161 c-4 -5 4 -15 16 -22 22 -12 22 -11 8 7 -8 10 -15 20 -16
22 -1 2 -5 -1 -8 -7z"/>
<path d="M1280 2162 c0 -11 35 -26 98 -42 23 -6 59 -20 80 -31 l37 -21 -29 25
c-27 24 -87 47 -134 53 -13 2 -30 8 -38 15 -8 7 -14 7 -14 1z"/>
<path d="M530 2153 c-8 -3 -23 -12 -32 -21 -14 -12 -18 -12 -18 -2 0 7 -3 10
-6 7 -4 -4 -1 -13 6 -22 11 -13 7 -15 -31 -16 -24 -1 -47 -1 -51 0 -5 0 -8 -3
-8 -9 0 -5 4 -10 10 -10 5 0 7 -7 4 -15 -5 -11 -11 -12 -25 -4 -12 6 -19 6
-19 0 0 -5 8 -12 18 -14 11 -3 8 -5 -8 -6 -15 0 -32 5 -39 12 -11 10 -12 8 -6
-11 5 -18 2 -27 -14 -38 -11 -8 -18 -21 -15 -29 4 -10 0 -15 -15 -15 -12 0
-21 -5 -21 -11 0 -5 5 -7 11 -3 17 10 89 13 83 3 -5 -9 20 -13 71 -11 26 1 27
0 10 -7 -26 -12 -11 -16 57 -12 22 1 22 1 -2 18 -14 10 -33 27 -42 39 -10 12
-31 27 -49 34 -25 11 -28 15 -15 22 9 5 21 6 27 2 8 -4 9 1 4 15 -4 13 -2 21
5 21 6 0 8 5 4 12 -5 8 -2 9 9 5 25 -9 67 10 67 30 0 13 3 14 12 5 9 -9 15 -7
25 6 8 9 12 12 9 6 -6 -13 23 -29 33 -18 3 4 0 9 -6 11 -7 3 -13 11 -13 19 0
15 -5 16 -30 7z m-126 -156 c52 -29 58 -47 14 -46 -31 1 -31 1 -8 9 28 9 13
13 -42 10 -47 -2 -63 7 -48 26 10 11 16 11 36 -3 14 -9 27 -13 30 -10 3 3 -4
8 -15 12 -12 3 -21 11 -21 16 0 14 11 11 54 -14z"/>
<path d="M1050 2121 c0 -12 26 -22 70 -27 28 -3 32 -2 17 7 -10 6 -23 9 -30 6
-6 -2 -18 2 -25 10 -15 15 -32 17 -32 4z"/>
<path d="M545 2100 c-30 -5 -34 -8 -15 -10 34 -3 53 0 65 11 10 10 11 10 -50
-1z"/>
<path d="M610 2089 c0 -6 -3 -8 -8 -5 -4 2 -18 -2 -32 -10 l-25 -13 27 -1 c15
0 30 5 33 10 3 6 11 10 16 10 6 0 7 -5 3 -11 -5 -9 1 -10 20 -5 25 6 24 4 -14
-33 -48 -47 -46 -70 8 -69 77 0 103 -33 37 -46 -23 -5 -25 -4 -10 3 19 8 18 9
-8 20 -36 14 -48 14 -44 -1 3 -18 23 -38 37 -38 7 0 10 -8 7 -20 -4 -16 -2
-20 12 -15 10 3 29 1 42 -5 24 -10 24 -10 -3 -7 -21 3 -32 -2 -44 -20 -12 -19
-19 -22 -27 -14 -12 12 -89 13 -127 1 -14 -4 -19 -8 -12 -9 7 -1 11 -5 8 -10
-4 -5 3 -7 14 -4 11 3 20 9 20 14 0 5 7 9 16 9 9 0 12 -5 8 -12 -5 -8 3 -9 29
-5 21 3 37 2 37 -3 0 -12 -30 -21 -50 -15 -11 3 -20 -1 -24 -10 -4 -12 1 -14
26 -12 17 1 32 -2 34 -8 6 -16 -13 -38 -25 -30 -9 5 -7 11 6 21 10 7 14 13 8
13 -16 0 -45 -25 -38 -32 3 -4 1 -7 -5 -7 -7 0 -12 7 -12 16 0 8 -5 12 -10 9
-6 -4 -8 -10 -6 -14 3 -3 -4 -7 -15 -7 -18 0 -18 2 -5 12 21 15 20 24 -1 24
-15 0 -16 2 -3 10 21 13 3 13 -22 -1 -15 -8 -22 -8 -28 1 -8 13 -109 40 -151
40 -28 0 -79 -21 -79 -32 0 -5 15 -8 33 -9 17 0 25 -3 17 -6 -8 -3 -29 -18
-47 -34 -24 -20 -28 -29 -17 -33 7 -3 25 6 38 21 26 28 93 56 101 42 3 -4 17
-4 31 1 19 8 29 6 41 -5 14 -14 13 -15 -13 -10 -20 5 -25 4 -15 -3 11 -8 11
-10 0 -15 -8 -3 -3 -5 11 -4 19 2 26 -3 28 -20 2 -13 8 -23 14 -23 6 0 5 -7
-3 -17 -10 -14 -8 -13 10 2 17 15 23 16 19 5 -2 -8 -19 -23 -37 -32 -30 -15
-31 -17 -14 -26 16 -9 24 -5 44 21 42 53 43 58 16 53 -16 -3 -27 1 -31 10 -3
7 -2 13 2 11 4 -1 7 2 7 8 0 5 -7 9 -15 7 -10 -2 -9 2 4 13 24 18 32 19 42 3
5 -7 3 -8 -7 -3 -11 7 -12 6 -2 -7 7 -8 9 -19 5 -24 -4 -4 1 -3 10 5 13 9 22
10 38 1 11 -6 18 -15 15 -21 -4 -5 -10 -7 -14 -5 -4 3 -8 0 -8 -7 -1 -22 -8
-42 -18 -49 -7 -5 -7 -8 0 -8 6 0 11 -11 11 -25 2 -28 -12 -34 -19 -7 -3 11
-5 9 -6 -8 l-1 -25 -13 24 c-13 26 -30 30 -33 7 -2 -14 23 -29 37 -23 11 4 39
-25 33 -34 -3 -5 -2 -14 2 -20 3 -6 19 15 35 46 28 57 96 133 136 154 31 16
38 14 22 -6 -8 -10 1 -5 19 10 19 15 40 27 47 27 8 0 18 8 23 17 6 9 19 17 30
18 12 1 18 -3 15 -8 -3 -5 0 -8 8 -5 8 3 14 13 14 24 0 15 -7 19 -34 17 -18 0
-38 -7 -45 -14 -8 -9 -8 -10 2 -5 6 4 12 5 12 2 0 -7 -104 -56 -118 -56 -6 0
-16 -8 -21 -19 -6 -10 -18 -22 -28 -25 -15 -6 -14 -4 3 15 l19 22 -22 -12
c-13 -6 -23 -19 -23 -27 0 -10 -6 -14 -15 -11 -8 4 -17 2 -20 -4 -4 -5 -11 -7
-16 -4 -5 4 -9 -1 -9 -10 0 -9 5 -13 11 -9 8 4 8 0 0 -15 -14 -25 -17 -26 -25
-5 -4 10 -2 13 7 8 8 -6 8 -3 -1 8 -11 14 -10 19 12 33 14 9 29 14 35 11 9 -6
23 18 26 46 4 32 15 48 32 48 17 -1 17 -1 0 -11 -14 -8 -16 -14 -6 -25 16 -19
30 -18 22 2 -7 19 41 62 72 65 14 1 15 3 5 5 -12 4 -14 15 -12 45 4 37 8 43
46 60 37 17 38 19 14 19 -16 0 -37 -10 -50 -24 -25 -27 -78 -45 -78 -27 0 6 7
11 15 11 9 0 27 11 41 25 l24 25 -25 6 c-14 3 -23 9 -20 13 2 4 -19 6 -46 5
-48 -2 -50 -1 -34 16 15 17 21 17 59 6 25 -8 51 -10 64 -5 30 11 28 20 -4 15
-14 -3 -35 -1 -47 4 -12 4 -31 11 -41 15 -27 8 -8 24 32 27 35 2 45 18 12 18
-11 0 -36 7 -55 14 -21 9 -35 11 -35 5z m110 -264 c0 -8 -11 -17 -25 -21 -14
-3 -23 -10 -20 -14 3 -5 -4 -6 -15 -3 -16 4 -18 8 -9 19 6 8 18 14 26 14 8 0
11 5 8 10 -3 6 3 10 14 10 12 0 21 -7 21 -15z m-365 -42 c18 -14 18 -15 2 -9
-10 3 -33 6 -50 7 -31 1 -31 1 -7 9 34 11 33 11 55 -7z m198 -200 c-5 -12 -7
-12 -14 -1 -13 20 -11 28 5 22 8 -3 12 -12 9 -21z"/>
<path d="M1058 2082 c24 -19 57 -23 57 -7 0 5 -7 10 -15 10 -8 1 -26 5 -40 9
l-25 7 23 -19z"/>
<path d="M998 2075 c5 -11 25 -28 44 -38 26 -14 29 -15 13 -2 -11 9 -18 22
-17 28 2 7 0 9 -4 4 -4 -4 -16 1 -27 10 -19 17 -20 17 -9 -2z"/>
<path d="M1426 2071 c-4 -6 -2 -20 4 -31 13 -25 2 -26 -16 -2 -13 16 -14 16
-7 -2 5 -15 3 -17 -8 -11 -12 8 -12 6 0 -8 8 -10 16 -15 19 -13 2 3 13 1 23
-5 11 -5 19 -6 18 -2 -1 4 1 16 6 26 9 22 -28 67 -39 48z m24 -53 c-8 -7 -12
-9 -8 -4 4 5 2 18 -4 30 -10 20 -10 20 8 4 16 -15 16 -20 4 -30z"/>
<path d="M1500 2070 c0 -9 56 -44 72 -45 4 0 13 -6 20 -12 6 -7 23 -13 38 -13
20 0 22 -2 10 -10 -18 -12 -9 -14 55 -12 32 1 36 0 20 -7 -35 -16 97 -13 162
4 33 8 78 16 100 18 23 1 39 5 36 9 -2 5 13 7 35 6 21 0 44 2 50 6 6 3 13 2
17 -3 3 -5 23 -10 44 -9 21 0 49 -3 62 -8 13 -4 29 -8 34 -9 6 -1 24 -7 40
-14 17 -7 39 -15 51 -16 39 -5 139 -38 204 -66 36 -16 82 -31 103 -34 20 -4
69 -17 109 -31 92 -31 223 -47 280 -35 30 7 46 7 57 -2 12 -10 14 -9 8 7 -6
16 -5 17 8 6 13 -11 15 -9 15 11 0 18 3 20 12 11 16 -16 31 -15 26 0 -3 7 -23
13 -45 14 -30 1 -40 -2 -36 -11 14 -39 -177 -35 -298 5 -31 11 -92 28 -135 40
-43 11 -106 33 -139 49 -58 28 -99 42 -134 45 -28 3 -106 28 -118 38 -33 26
-300 27 -341 0 -56 -37 -284 -13 -343 35 -8 7 -20 13 -26 13 -6 0 -16 7 -23
15 -14 17 -30 20 -30 5z"/>
<path d="M510 2060 c0 -5 4 -10 9 -10 5 0 16 -7 25 -15 12 -12 23 -14 48 -6
33 9 33 9 5 10 -15 1 -41 8 -57 16 -17 9 -30 11 -30 5z"/>
<path d="M1060 2049 c17 -10 77 -13 67 -3 -4 4 -23 8 -44 10 -25 2 -32 0 -23
-7z"/>
<path d="M988 2017 c3 -12 7 -17 9 -11 2 6 15 9 28 6 14 -2 23 -8 20 -12 -3
-5 8 -13 24 -18 26 -9 28 -8 23 11 -4 18 -2 20 9 10 16 -16 58 -18 43 -3 -5 5
-33 12 -61 15 -28 2 -62 9 -76 14 -22 9 -24 8 -19 -12z"/>
<path d="M1374 2008 c0 -16 6 -28 11 -28 6 0 3 -4 -5 -10 -12 -8 -12 -10 3
-16 26 -10 28 -3 8 41 -17 36 -18 37 -17 13z"/>
<path d="M1333 2002 c4 -18 2 -22 -9 -18 -8 3 -14 1 -14 -3 0 -12 27 -21 44
-15 15 6 16 28 2 31 -5 1 -13 7 -18 15 -7 9 -8 6 -5 -10z"/>
<path d="M954 1973 c7 -7 87 -5 95 3 2 2 -20 4 -49 4 -29 0 -50 -3 -46 -7z"/>
<path d="M1225 1972 c-11 -11 -4 -24 9 -19 8 3 20 -1 26 -9 7 -8 18 -14 24
-14 7 0 29 -9 49 -19 33 -17 35 -20 18 -26 -21 -6 -53 6 -83 33 -10 8 -18 11
-18 6 0 -5 -5 -2 -10 6 -6 9 -10 10 -10 3 0 -6 13 -20 30 -29 19 -12 25 -21
18 -25 -6 -4 2 -7 18 -8 16 0 39 0 52 -1 13 0 21 -4 18 -9 -4 -5 -17 -8 -31
-7 -13 2 -22 -1 -19 -5 7 -12 54 -11 54 1 0 6 8 10 18 10 14 0 15 2 2 10 -8 5
-15 13 -15 18 0 12 -32 42 -38 36 -9 -9 -28 6 -22 16 3 6 16 5 30 0 18 -7 23
-6 19 4 -3 7 -17 12 -31 10 -15 -1 -36 3 -47 9 -23 13 -52 17 -61 9z"/>
<path d="M1547 1964 c-4 -4 -7 -16 -7 -26 0 -11 -4 -16 -11 -12 -8 5 -8 1 0
-14 6 -11 9 -27 6 -34 -3 -7 1 -22 9 -33 9 -11 16 -15 16 -8 0 6 -4 15 -10 18
-5 3 -10 11 -10 17 0 6 8 4 18 -5 26 -24 39 -21 17 3 -10 11 -15 20 -10 20 4
0 2 7 -5 15 -7 9 -10 18 -7 22 4 3 9 -2 13 -11 3 -9 13 -16 21 -16 8 0 28 -14
45 -30 41 -41 47 -31 9 13 -38 43 -38 49 -3 42 l27 -5 -27 12 c-16 7 -28 18
-28 25 0 7 -5 13 -10 13 -7 0 -7 -6 -1 -18 11 -21 0 -44 -16 -34 -7 4 -16 18
-20 30 -5 13 -12 20 -16 16z"/>
<path d="M975 1950 c-18 -7 -17 -8 10 -15 46 -11 53 -15 18 -12 -18 2 -30 0
-27 -4 2 -4 -4 -10 -13 -13 -10 -3 2 -2 27 1 25 3 53 10 63 15 10 5 23 7 30 5
7 -3 1 -10 -13 -16 -24 -11 -24 -11 5 -6 69 14 52 48 -22 43 -22 -2 -39 0 -36
5 5 9 -16 8 -42 -3z"/>
<path d="M249 1923 c-1 -5 -1 -11 -1 -14 1 -4 -12 -12 -29 -19 -39 -17 -44
-27 -19 -40 14 -7 26 -8 38 -1 14 9 11 11 -18 12 -21 1 -27 3 -16 6 11 3 26
11 34 19 7 8 20 14 28 14 8 0 13 4 10 9 -4 5 0 12 6 14 7 3 3 6 -9 6 -13 1
-24 -2 -24 -6z"/>
<path d="M1162 1923 c-19 -3 -49 -13 -66 -23 -24 -13 -50 -17 -92 -15 -32 1
-51 0 -41 -2 9 -3 17 -9 17 -14 0 -5 12 -7 28 -6 15 2 38 0 52 -4 l25 -7 -28
-1 c-18 -1 -26 -5 -21 -12 4 -7 -3 -10 -17 -9 -39 3 -51 1 -44 -10 4 -6 21 -8
41 -4 22 4 34 2 34 -5 0 -6 4 -11 9 -11 6 0 8 9 6 20 -4 20 6 24 51 21 24 -2
79 17 71 25 -3 3 -15 0 -27 -6 -27 -14 -67 -6 -67 14 0 17 46 36 88 36 16 0
29 5 29 10 0 6 -3 9 -7 8 -5 0 -23 -3 -41 -5z"/>
<path d="M393 1910 c2 -8 14 -20 26 -26 13 -7 28 -17 34 -23 6 -6 19 -11 30
-11 10 0 15 -4 12 -10 -3 -5 -2 -10 4 -10 5 0 13 5 16 11 4 6 14 8 22 5 8 -3
11 -1 8 4 -3 6 0 10 7 11 7 0 3 5 -9 11 -13 6 -23 15 -23 21 0 5 -13 7 -30 4
-17 -4 -30 -2 -30 3 0 6 -5 10 -11 10 -5 0 -7 -5 -3 -11 9 -15 -38 -1 -49 15
-6 7 -7 6 -4 -4z m137 -40 c10 -7 3 -8 -24 -5 -22 3 -42 8 -45 10 -9 9 54 5
69 -5z"/>
<path d="M846 1901 c-4 -5 -17 -8 -31 -7 -26 3 -44 -22 -24 -34 8 -6 8 -9 0
-14 -6 -4 -11 -12 -11 -17 0 -6 5 -7 10 -4 6 3 10 0 10 -7 1 -8 4 -7 10 4 6
10 18 14 30 11 11 -3 17 -9 15 -14 -8 -12 37 -1 49 12 8 8 5 8 -11 0 -13 -6
-23 -9 -23 -6 0 3 16 13 36 21 50 21 38 27 -19 10 -34 -10 -47 -11 -50 -2 -3
7 -11 3 -21 -9 -15 -20 -16 -20 -12 5 2 21 8 25 32 24 16 -1 31 1 34 5 3 4 16
12 30 18 24 11 24 12 -12 12 -20 1 -39 -3 -42 -8z"/>
<path d="M1230 1860 c0 -5 6 -10 13 -10 8 0 7 -4 -3 -11 -12 -8 -11 -9 6 -4
25 7 56 -3 48 -16 -3 -5 7 -9 23 -10 15 0 22 -3 15 -6 -7 -3 -34 0 -59 6 -34
9 -48 9 -59 0 -24 -20 -16 -29 24 -28 l37 2 -35 6 c-19 3 -30 9 -25 13 6 3 37
-3 70 -13 33 -10 91 -23 128 -28 38 -5 75 -15 83 -22 8 -6 17 -9 21 -5 3 3 1
6 -6 6 -7 0 -10 4 -7 9 9 14 -28 23 -117 29 -19 1 -30 10 -37 27 -5 14 -15 25
-23 25 -7 0 -30 9 -52 20 -46 23 -45 23 -45 10z"/>
<path d="M1470 1850 c-14 -9 -7 -14 13 -11 5 1 6 -3 3 -8 -3 -5 1 -11 9 -15
18 -7 19 4 3 27 -9 12 -17 14 -28 7z"/>
<path d="M183 1833 c-7 -2 -13 -11 -13 -20 0 -10 6 -12 23 -7 22 7 22 6 3 -14
-10 -12 -20 -34 -23 -49 -10 -74 -10 -93 -2 -93 5 0 9 8 10 18 3 74 8 95 27
122 19 25 20 30 7 30 -9 0 -13 5 -10 10 7 11 -2 12 -22 3z"/>
<path d="M3177 1821 c-2 -9 0 -25 4 -36 7 -19 8 -18 8 3 1 19 5 22 24 17 12
-4 37 -16 55 -27 17 -11 32 -16 32 -10 0 12 32 12 49 -1 7 -6 20 -12 29 -14 9
-1 22 -10 29 -19 7 -10 15 -15 19 -12 3 4 19 2 35 -2 17 -5 31 -5 34 1 16 25
85 -17 85 -52 0 -5 4 -8 9 -4 5 3 12 1 16 -5 12 -19 -21 -10 -55 15 -34 25
-59 35 -29 12 16 -13 33 -47 22 -47 -4 0 -15 8 -26 18 -11 9 -17 12 -14 6 11
-18 -17 -23 -38 -8 -10 8 -20 21 -21 30 -4 25 -11 27 -17 4 -4 -14 2 -25 20
-38 38 -25 93 -84 93 -99 0 -7 -8 -13 -18 -13 -10 0 -24 -6 -31 -12 -11 -11
-13 -9 -8 11 4 18 3 21 -5 13 -9 -9 -18 -1 -35 29 -13 23 -23 46 -23 53 1 6 8
-1 16 -16 17 -32 32 -37 30 -10 -1 15 -26 33 -49 36 -4 1 -16 15 -27 31 -11
17 -20 26 -20 21 0 -6 -7 -1 -15 10 -8 10 -15 14 -15 8 0 -6 11 -21 25 -34 16
-15 25 -35 26 -54 0 -26 2 -28 9 -11 6 15 9 16 9 4 1 -9 14 -34 30 -56 23 -32
27 -43 18 -59 -6 -10 -12 -25 -13 -33 -3 -17 -25 -32 -36 -25 -4 3 -8 -1 -8
-9 0 -19 -71 -18 -78 1 -3 11 16 17 47 12 12 -1 13 1 2 13 -16 20 2 31 29 17
11 -6 20 -7 20 -2 0 4 -19 19 -42 32 -24 12 -52 30 -63 39 -20 16 -20 16 -2
-6 18 -21 16 -43 -4 -43 -6 0 -8 4 -5 8 2 4 -4 8 -15 8 -10 0 -19 -4 -19 -8 0
-4 6 -8 14 -8 8 0 24 -8 37 -19 l23 -18 -24 -8 c-13 -4 -30 -13 -37 -21 -11
-10 -7 -14 18 -19 24 -6 28 -9 18 -17 -10 -7 -8 -8 6 -2 11 4 35 8 53 8 17 0
32 4 32 9 0 6 3 7 7 4 3 -4 16 2 28 13 12 11 34 21 51 22 16 1 34 5 40 10 7 5
17 2 24 -7 7 -8 19 -15 26 -15 8 0 14 -9 14 -20 0 -22 26 -28 32 -8 3 9 6 9
12 0 4 -7 3 -12 -3 -12 -6 0 -8 -7 -5 -15 10 -25 25 -17 20 10 -6 33 -14 45
-31 45 -7 0 -15 7 -19 15 -3 8 -9 15 -13 14 -4 -1 -15 -1 -23 0 -13 1 -13 2 0
11 12 7 12 12 2 22 -6 6 -12 8 -12 2 0 -12 -59 -34 -82 -31 -10 2 -21 7 -25
12 -4 4 -2 5 5 1 7 -4 12 -4 11 1 -3 18 1 36 8 30 3 -4 12 -2 20 4 19 16 16
-1 -4 -25 -14 -16 -12 -16 9 3 15 12 32 20 38 16 6 -4 17 1 24 10 11 15 9 21
-12 42 -17 17 -21 28 -14 35 12 12 35 1 27 -12 -6 -10 25 -43 33 -35 4 3 0 10
-8 15 -7 4 -15 18 -17 29 -2 16 3 21 18 21 13 0 18 4 13 13 -5 9 -4 9 6 0 7
-7 10 -19 6 -30 -6 -15 -8 -15 -16 -3 -8 13 -10 13 -10 1 0 -8 10 -25 22 -38
14 -15 16 -22 7 -18 -8 3 -23 -1 -34 -9 -19 -15 -18 -18 43 -76 34 -34 62 -67
62 -74 0 -8 8 -20 17 -27 11 -10 14 -10 9 -1 -4 7 -2 12 4 12 7 0 10 6 8 13
-3 6 -10 12 -15 12 -6 0 -15 4 -20 9 -5 6 -2 6 7 1 8 -5 5 3 -7 16 -21 23 -21
25 -3 46 15 19 19 20 24 7 4 -10 2 -13 -7 -8 -8 6 -8 3 1 -9 8 -9 11 -20 8
-26 -3 -5 4 -22 17 -38 34 -42 59 -84 54 -90 -3 -3 -13 9 -21 25 -20 39 -41
54 -31 22 5 -17 4 -21 -6 -15 -9 6 -11 3 -6 -9 6 -14 3 -17 -9 -12 -14 5 -15
4 -5 -8 8 -10 9 -16 1 -21 -5 -3 -10 -5 -11 -3 -6 25 -6 39 2 43 11 8 -12 45
-28 45 -15 0 -17 -16 -3 -25 6 -3 10 -13 10 -22 0 -9 -3 -13 -7 -9 -5 4 -8 12
-8 17 0 5 -3 9 -7 9 -5 0 -11 0 -14 0 -3 0 4 -13 16 -29 12 -18 16 -32 10 -36
-6 -3 -13 1 -16 9 -3 9 -10 14 -14 11 -5 -3 -11 -1 -15 5 -3 5 -1 10 6 10 8 0
8 4 -1 15 -10 12 -10 15 1 15 11 0 11 2 -1 10 -11 7 -11 10 -2 10 7 0 11 4 7
9 -3 6 -14 9 -25 8 -14 -1 -18 -6 -15 -18 3 -10 8 -26 10 -37 5 -27 55 -79 63
-66 4 6 15 10 25 8 9 -1 17 2 17 7 0 6 5 7 10 4 6 -3 10 0 10 8 0 21 26 16 27
-5 1 -10 -2 -16 -8 -13 -5 4 -9 -2 -9 -11 0 -10 3 -14 7 -11 9 10 33 -13 33
-32 -1 -11 -5 -9 -14 8 -10 18 -15 20 -21 11 -5 -9 0 -20 15 -32 12 -10 18
-18 14 -18 -5 0 -2 -5 6 -10 11 -7 17 -4 22 8 5 9 5 2 2 -15 -3 -21 -1 -33 5
-33 21 0 11 -37 -14 -50 -22 -12 -30 -11 -64 8 -49 28 -56 28 -56 -2 0 -19 4
-22 20 -16 24 9 47 2 58 -17 6 -9 13 -10 27 -3 24 13 61 -17 38 -31 -7 -5 -17
-9 -23 -9 -5 0 -4 4 3 9 11 6 9 10 -7 14 -18 4 -19 2 -11 -13 6 -11 6 -21 1
-24 -5 -3 -12 1 -15 10 -4 9 -9 14 -13 11 -3 -4 -12 -2 -20 4 -9 9 -13 8 -13
0 0 -6 -3 -10 -7 -9 -13 3 -63 -24 -63 -34 0 -4 -4 -8 -9 -8 -5 0 -7 9 -4 20
3 12 0 20 -6 20 -7 0 -10 4 -6 9 3 5 1 12 -5 16 -5 3 -10 1 -10 -5 0 -8 -6 -7
-21 1 -17 9 -23 8 -30 -2 -12 -19 -11 -37 3 -45 7 -5 9 -2 5 9 -7 19 22 32 37
17 8 -8 3 -18 -18 -35 -26 -21 -27 -25 -17 -51 l11 -29 -5 33 c-3 25 -1 32 11
32 11 0 14 -6 10 -17 -5 -15 -3 -14 10 2 16 20 16 20 10 -2 -5 -16 -2 -23 12
-27 16 -5 19 -14 16 -47 -2 -22 -6 -44 -9 -49 -10 -16 13 -20 28 -6 8 8 18 12
23 8 4 -4 -3 10 -15 31 -13 21 -21 40 -19 42 8 9 47 -8 41 -18 -3 -6 -1 -7 6
-3 17 11 53 -3 44 -17 -4 -7 0 -6 10 2 18 14 14 31 -8 31 -8 0 -16 4 -19 9 -3
5 5 9 19 9 14 -1 22 -4 20 -8 -3 -5 1 -10 7 -13 10 -3 10 -7 -1 -20 -11 -14
-11 -17 -1 -17 8 0 10 -3 7 -7 -4 -3 0 -17 8 -29 14 -21 14 -23 -1 -17 -10 4
-22 0 -28 -9 -11 -15 -14 -14 -36 3 -23 17 -24 19 -5 20 11 1 24 1 28 0 4 -1
3 8 -3 18 -12 23 -37 18 -42 -7 -2 -10 1 -25 6 -34 8 -14 6 -21 -9 -32 -11 -8
-24 -11 -29 -6 -10 10 2 32 15 25 5 -3 6 1 2 10 -4 12 -8 13 -13 5 -6 -9 -9
-9 -13 1 -4 10 -6 9 -6 -3 -1 -9 -6 -18 -12 -20 -6 -2 -3 -13 9 -28 11 -14 22
-34 25 -45 6 -21 -18 -63 -29 -52 -4 4 -2 13 5 21 9 11 8 15 -3 19 -9 4 -18 2
-21 -4 -4 -5 -10 -7 -15 -4 -12 7 -9 95 3 95 5 0 3 7 -4 17 -13 15 -12 15 9 4
24 -13 29 -7 9 13 -7 7 -17 11 -24 9 -6 -2 -15 1 -19 8 -5 9 -2 10 9 6 19 -7
44 18 27 28 -5 3 -10 14 -10 23 0 13 2 13 15 -4 14 -18 14 -17 4 9 -17 38 -33
34 -26 -8 3 -19 2 -35 -3 -35 -11 0 -21 30 -14 41 9 16 -5 10 -26 -11 -24 -24
-26 -34 -4 -26 13 5 15 2 11 -14 -3 -11 0 -18 6 -17 16 3 21 -33 6 -47 -9 -8
-10 -8 -6 0 4 7 1 17 -7 23 -11 9 -15 7 -19 -9 -3 -11 -1 -20 4 -20 5 0 9 -4
9 -10 0 -24 -29 5 -44 43 -22 58 -19 71 5 22 11 -22 17 -29 14 -15 -17 62 -17
77 0 83 9 4 14 3 10 -3 -3 -6 -1 -10 6 -10 7 0 9 11 5 33 -3 17 -8 43 -10 57
-2 14 -7 33 -11 42 -9 23 33 67 46 47 7 -11 9 -11 9 -1 0 7 4 11 9 8 5 -3 12
1 15 10 8 21 7 31 -2 18 -5 -9 -11 -8 -20 2 -11 12 -10 14 3 14 17 0 12 14
-18 55 -22 29 -28 15 -13 -30 8 -21 12 -44 9 -51 -6 -17 -39 -5 -52 19 -6 12
-10 15 -7 5 3 -10 -3 -18 -17 -22 -18 -5 -19 -8 -7 -15 8 -5 17 -8 21 -5 4 2
11 -1 15 -7 5 -8 3 -9 -6 -4 -10 6 -12 4 -7 -8 3 -9 1 -18 -6 -20 -8 -3 -5
-18 11 -49 13 -25 20 -52 16 -61 -8 -21 -26 -12 -23 11 4 25 -11 63 -21 57 -5
-3 -7 -12 -3 -20 3 -8 1 -15 -5 -15 -5 0 -12 7 -16 15 -7 19 -26 19 -26 0 0
-8 4 -15 8 -15 4 0 9 -11 10 -26 1 -17 -2 -23 -11 -18 -9 5 -9 4 0 -6 9 -10 9
-16 -2 -26 -17 -18 -25 -18 -25 1 0 8 -11 25 -25 39 -30 30 -30 34 -4 66 12
15 19 19 18 10 -1 -8 -1 -30 0 -48 1 -30 3 -32 16 -18 14 14 11 46 -4 46 -4 0
-6 14 -3 31 3 20 9 28 18 25 9 -3 11 1 8 12 -3 9 6 4 21 -13 14 -16 23 -22 19
-12 -3 9 -1 17 5 17 6 0 11 5 11 10 0 6 -6 10 -14 10 -10 0 -13 8 -11 22 4 21
3 22 -9 6 -16 -22 -27 -23 -20 -3 4 8 2 15 -4 15 -5 0 -9 -10 -8 -22 1 -14 -4
-22 -11 -20 -7 1 -13 -2 -13 -8 0 -5 -4 -10 -10 -10 -5 0 -10 7 -10 15 0 8 4
15 10 15 5 0 18 18 28 40 10 22 21 38 24 34 4 -3 4 -12 2 -19 -3 -7 4 -15 16
-18 14 -4 23 0 27 11 4 9 13 21 20 25 7 5 10 13 7 19 -4 7 -2 8 4 4 7 -4 12
-3 12 3 0 6 -9 15 -20 21 -11 6 -20 18 -21 28 -1 9 -7 -1 -13 -22 -13 -43 -36
-60 -36 -27 0 11 -5 23 -11 26 -7 5 -6 14 4 28 7 12 17 31 20 42 7 19 6 19 -7
3 -7 -10 -18 -18 -24 -18 -6 0 -9 -7 -6 -15 4 -8 1 -21 -5 -29 -8 -10 -8 -16
4 -26 17 -14 6 -44 -20 -54 -12 -4 -14 0 -11 20 3 17 -3 39 -20 63 -13 20 -26
35 -29 34 -3 -2 -6 -3 -7 -2 -25 8 -58 8 -53 -1 3 -5 1 -10 -4 -10 -22 0 -10
31 15 40 33 13 37 13 28 -2 -4 -7 -3 -8 5 -4 6 4 18 3 26 -4 9 -7 15 -8 20 0
3 5 11 10 17 10 6 0 3 -9 -8 -21 -16 -17 -16 -22 -4 -29 29 -19 34 -13 30 42
-1 14 4 29 11 34 9 5 10 1 6 -15 -5 -22 -5 -22 14 -5 10 9 22 14 26 11 3 -4
12 -2 20 4 10 9 13 8 13 0 0 -7 5 -9 12 -5 8 5 9 2 5 -9 -4 -11 -1 -17 7 -17
11 0 29 24 24 33 -1 1 4 12 10 23 17 33 2 37 -24 7 -13 -15 -26 -24 -30 -21
-9 10 5 60 16 53 5 -3 11 -1 15 5 4 6 12 6 24 -2 15 -9 17 -20 13 -56 -4 -39
-3 -44 11 -39 11 4 14 2 10 -8 -3 -8 -9 -12 -14 -9 -5 3 -9 0 -9 -5 0 -6 5
-11 11 -11 5 0 7 -5 3 -11 -4 -8 -11 -3 -20 12 -7 13 -10 28 -7 33 4 5 1 6 -5
2 -6 -4 -9 -14 -6 -24 4 -10 3 -13 -3 -6 -4 6 -16 11 -25 11 -13 0 -15 -4 -8
-17 5 -10 7 -20 4 -22 -2 -3 8 -4 23 -2 15 1 35 -2 45 -7 14 -7 16 -6 12 6 -4
8 -1 15 5 15 6 0 14 -12 17 -27 7 -30 31 -63 46 -63 5 0 7 4 4 9 -3 5 1 12 10
15 8 3 12 2 9 -4 -10 -16 21 -11 35 5 8 9 21 13 36 9 26 -7 33 10 8 20 -8 3
-12 10 -9 16 3 5 0 10 -8 10 -8 0 -18 -7 -21 -16 -3 -8 -10 -13 -15 -9 -5 3
-13 1 -16 -5 -5 -8 -11 -7 -21 1 -12 10 -13 9 -8 -5 3 -9 2 -16 -2 -16 -20 1
-34 18 -38 46 -2 16 -7 37 -11 48 -6 14 -5 17 6 14 8 -3 13 -13 13 -22 -1 -10
1 -15 4 -12 3 3 11 1 19 -5 10 -9 13 -8 13 1 0 10 3 10 15 0 13 -11 15 -10 9
6 -5 18 -5 18 10 0 14 -17 16 -18 16 -3 0 9 6 17 13 17 9 0 8 3 -2 9 -11 7
-40 8 -48 1 -11 -9 -32 -2 -50 18 -17 17 -23 19 -23 8 0 -10 -6 -13 -15 -10
-8 4 -15 14 -15 23 0 13 2 14 9 2 6 -10 8 -3 6 22 -4 41 -13 60 -25 52 -4 -3
-6 4 -3 15 3 11 9 18 13 15 5 -3 11 -1 14 4 4 5 2 12 -4 16 -6 4 -8 11 -5 16
4 5 1 9 -5 9 -7 0 -10 -7 -6 -15 3 -8 2 -15 -3 -15 -5 0 -14 7 -21 15 -7 8
-16 15 -21 15 -14 0 -41 -72 -40 -106 0 -23 -5 -33 -18 -37 -24 -6 -43 31 -29
57 5 10 7 20 5 23 -8 7 -45 -70 -40 -84 2 -6 -5 -17 -16 -23 -12 -6 -21 -7
-21 -3 0 15 65 116 73 114 5 -1 15 6 23 16 11 14 10 8 -2 -25 -11 -30 -13 -47
-6 -54 6 -6 12 -6 17 3 6 8 4 10 -5 4 -10 -6 -11 -4 -5 11 30 72 44 114 39
114 -4 0 -17 -11 -30 -25 -13 -14 -30 -25 -39 -25 -8 0 -15 -5 -15 -11 0 -5
-4 -8 -9 -5 -5 3 -19 -2 -32 -12 -45 -35 -64 -33 -24 2 40 35 41 46 3 25 -11
-6 -32 -13 -46 -15 -26 -5 -44 -15 -85 -48 -15 -12 -16 -18 -7 -35 10 -19 7
-25 -12 -22 -5 0 -8 -4 -8 -11 0 -6 -3 -8 -7 -5 -3 4 -12 -1 -20 -11 -9 -10
-12 -11 -7 -2 5 11 1 10 -13 -3 -12 -10 -27 -32 -33 -48 -7 -16 -18 -29 -25
-29 -7 0 -24 -11 -39 -25 -15 -14 -32 -23 -37 -20 -13 8 -11 25 2 25 7 0 23
12 37 27 16 18 27 23 30 15 2 -7 8 -10 13 -6 12 7 12 25 0 22 -5 -2 -9 2 -9 7
-1 6 5 9 12 9 7 -1 18 7 24 17 11 17 9 18 -12 9 -43 -16 -64 -33 -59 -47 6
-15 -13 -18 -22 -2 -4 5 1 19 10 29 17 18 17 19 -4 15 -18 -3 -20 -1 -11 15
15 27 12 40 -7 41 -11 0 -13 3 -5 6 6 2 12 9 12 14 0 6 -5 7 -12 3 -8 -5 -9
-2 -5 9 3 10 2 17 -3 17 -14 0 -22 -18 -11 -25 6 -3 8 -12 4 -20 -3 -9 1 -15
11 -15 26 0 -2 -47 -35 -59 -32 -11 -48 9 -23 29 8 7 14 18 14 24 0 6 -10 0
-21 -14 l-20 -25 6 25 c5 19 4 21 -4 10 -6 -8 -15 -16 -21 -16 -5 -1 -11 -2
-12 -4 -2 -1 -11 -3 -20 -5 -25 -5 -22 11 4 29 12 9 18 16 12 16 -6 0 -20 -10
-32 -23 -23 -24 -30 -43 -12 -32 14 9 13 -8 -2 -23 -6 -6 -8 -15 -4 -19 4 -5
14 1 22 11 18 26 56 33 47 9 -4 -11 -3 -14 6 -9 7 5 10 15 6 25 -5 13 -4 13 6
4 10 -10 9 -16 -4 -31 -24 -26 -23 -50 1 -29 10 10 21 15 24 12 3 -3 13 4 23
15 27 30 38 24 20 -10 -9 -17 -28 -35 -43 -41 -20 -8 -23 -12 -12 -19 9 -5 18
-4 24 4 12 13 62 46 71 46 3 0 5 -4 5 -10 0 -5 -6 -10 -13 -10 -8 0 -24 -11
-36 -24 -26 -27 -57 -30 -66 -6 -5 12 -10 10 -26 -10 -10 -14 -17 -18 -13 -9
6 19 -11 35 -21 19 -4 -6 -10 -8 -15 -5 -5 3 -19 -9 -31 -27 -13 -17 -18 -28
-12 -25 7 4 14 3 18 -3 4 -6 -6 -10 -24 -10 -29 0 -43 -11 -47 -38 -2 -13 40
-11 144 4 25 4 42 2 42 -4 0 -5 23 -12 50 -14 52 -5 79 -26 80 -60 0 -10 5
-18 10 -18 11 0 30 -41 50 -105 6 -22 20 -59 31 -82 10 -24 19 -49 19 -56 0
-7 6 -19 13 -26 20 -21 -34 -3 -59 20 -11 11 -26 19 -32 19 -7 0 -12 5 -12 11
0 5 -4 8 -9 5 -5 -3 -26 1 -46 10 -21 8 -43 13 -50 11 -6 -3 -38 1 -71 9 -32
7 -68 14 -79 13 -11 0 43 -16 120 -35 77 -19 144 -40 150 -46 7 -8 5 -9 -8 -5
-10 4 -16 3 -13 -2 3 -5 18 -12 32 -15 14 -4 51 -26 81 -49 120 -91 115 -89
158 -82 22 3 69 8 105 11 47 4 72 12 90 28 24 22 29 22 110 13 140 -16 492
-16 574 -1 66 13 74 13 118 -6 26 -11 55 -20 65 -19 10 1 0 7 -22 14 -22 7
-52 19 -67 27 -24 13 -35 13 -80 2 -29 -8 -69 -14 -90 -14 -33 0 -38 3 -38 24
0 13 -9 35 -21 50 -18 23 -28 26 -79 26 -56 0 -88 14 -91 41 -3 19 -5 24 -18
48 -12 21 -11 23 3 18 15 -6 15 -4 0 18 -9 14 -21 22 -27 18 -5 -3 -7 -1 -4 4
4 6 -2 18 -13 28 -25 22 -26 36 -2 29 13 -4 12 -2 -3 7 -37 22 -76 70 -73 87
2 9 13 18 25 20 11 2 23 12 26 23 6 20 32 20 109 -3 63 -19 148 15 203 81 l29
33 -27 77 c-19 53 -27 96 -27 142 0 49 -5 72 -19 90 -10 13 -21 35 -24 49 -18
82 -63 152 -118 184 -16 9 -29 15 -29 11 0 -3 -10 1 -23 10 -13 8 -27 12 -30
8 -4 -3 -7 -1 -7 6 0 7 -4 10 -8 7 -5 -3 -18 7 -29 22 -26 35 -139 106 -158
98 -8 -3 -21 -20 -31 -38 -30 -60 -43 -68 -88 -62 -23 4 -47 11 -54 17 -10 8
-16 7 -22 -4 -5 -8 -15 -14 -22 -15 -17 0 -68 24 -91 44 -9 8 -20 13 -23 10
-3 -4 -17 0 -32 8 -17 9 -30 10 -38 3 -8 -7 -26 -2 -57 14 -40 22 -46 23 -50
8z m677 -122 c21 -30 35 -44 31 -31 -5 16 -2 22 9 22 8 0 18 -4 21 -10 3 -5
14 -10 23 -10 20 0 102 -89 102 -112 0 -9 7 -23 15 -32 8 -8 15 -22 15 -31 0
-9 10 -30 21 -47 24 -33 32 -90 20 -135 -4 -17 -2 -38 5 -53 7 -14 19 -41 27
-61 15 -34 14 -36 -2 -32 -14 3 -16 -2 -13 -34 3 -34 0 -41 -23 -51 -40 -18
-68 -14 -94 13 -24 26 -54 34 -46 13 3 -7 19 -21 35 -30 43 -25 39 -48 -8 -48
-69 0 -94 40 -51 80 32 30 49 61 49 89 0 26 29 54 48 46 18 -7 54 28 48 47 -3
7 -7 25 -10 41 -4 15 -11 27 -16 27 -15 0 -23 -46 -11 -68 14 -26 1 -37 -16
-13 -10 14 -10 26 -3 46 13 33 13 32 -5 32 -8 0 -15 -8 -15 -18 0 -25 -11 -49
-22 -49 -5 0 -6 5 -3 10 3 6 1 10 -4 10 -6 0 -11 -4 -11 -9 0 -4 -13 -25 -29
-45 -16 -20 -32 -51 -35 -70 -6 -30 -36 -60 -36 -36 0 5 -8 11 -18 14 -26 9
-40 41 -47 111 -6 58 -5 61 19 74 23 13 24 15 9 26 -10 7 -13 17 -8 25 6 9 4
11 -6 5 -12 -8 -12 -6 0 8 12 15 11 17 -3 17 -20 0 -20 9 1 32 15 17 15 18 -6
18 -14 0 -20 -4 -15 -11 4 -7 -1 -7 -16 1 -16 9 -21 18 -17 36 2 14 -1 24 -7
24 -6 0 -4 5 4 10 12 8 9 10 -12 10 -41 0 -58 -10 -58 -35 0 -13 -5 -27 -10
-30 -6 -4 -8 -10 -5 -15 11 -18 -19 -22 -31 -5 -17 23 -7 40 14 23 14 -11 14
-9 -1 15 -14 21 -17 40 -13 69 4 27 1 47 -9 61 -8 12 -15 31 -15 42 0 20 43
119 61 141 17 21 128 -54 173 -117z m-244 6 c0 -13 -4 -14 -20 -5 -11 6 -20
13 -20 15 0 3 9 5 20 5 11 0 20 -7 20 -15z m-249 -199 c5 3 9 1 9 -5 0 -5 -9
-9 -20 -8 -21 1 -25 9 -13 21 4 4 9 2 11 -3 2 -6 8 -9 13 -5z m271 -1 c0 -5
-5 -11 -11 -13 -6 -2 -11 4 -11 13 0 9 5 15 11 13 6 -2 11 -8 11 -13z m165
-96 c1 -12 -4 -28 -12 -35 -11 -11 -17 -8 -40 21 -15 21 -21 35 -14 35 9 0 10
3 2 11 -6 6 -8 20 -6 31 5 18 8 17 37 -11 18 -17 32 -40 33 -52z m-247 -9 c10
-7 11 -12 4 -17 -6 -5 -14 -17 -18 -28 -5 -13 -10 -16 -13 -7 -3 6 -8 10 -13
7 -4 -3 -6 4 -3 15 3 11 13 20 22 20 14 0 14 2 1 10 -8 5 -10 10 -5 10 6 0 17
-5 25 -10z m-239 -62 c-5 -14 -17 -28 -26 -32 -10 -3 -15 -15 -13 -29 3 -30
-51 -104 -64 -85 -5 8 -6 3 -2 -14 5 -21 -1 -34 -25 -60 -17 -18 -31 -39 -31
-45 0 -16 -2 -16 -36 1 -27 15 -49 13 -39 -3 7 -12 -27 -38 -47 -38 -10 0 -18
3 -18 7 0 3 -9 6 -20 7 -11 1 -18 -2 -16 -6 3 -4 -1 -8 -9 -8 -18 0 -19 9 -3
25 13 13 42 17 34 4 -2 -4 4 -8 15 -8 10 0 19 6 19 13 0 8 -7 10 -17 6 -16 -6
-17 -5 -3 13 14 18 14 18 -2 5 -24 -18 -55 -7 -38 14 17 20 33 19 55 -5 10
-11 23 -20 29 -20 7 0 6 4 -2 8 -13 9 -8 15 42 52 16 12 18 13 11 1 -6 -11 -5
-12 6 -5 8 4 23 10 33 11 19 3 19 3 1 -17 -10 -11 -24 -19 -30 -16 -7 2 -12
-2 -12 -10 0 -7 7 -12 16 -10 32 6 51 18 51 32 0 8 5 14 10 14 6 0 10 7 10 16
0 9 -5 12 -12 8 -10 -6 -10 -4 0 7 17 18 15 30 -4 22 -15 -6 -15 -4 0 20 19
28 43 41 48 26 2 -5 12 -3 23 6 13 10 14 13 4 10 -12 -4 -15 0 -14 17 1 13 -3
26 -9 30 -6 4 -3 10 9 14 11 4 24 14 28 21 8 13 48 34 55 28 1 -1 -2 -13 -7
-27z m93 10 c-4 -7 -13 -20 -21 -29 -7 -9 -15 -30 -16 -47 -1 -21 -5 -27 -13
-21 -7 5 -10 18 -7 29 5 17 3 18 -20 7 -14 -6 -23 -15 -21 -19 3 -5 -2 -8 -10
-8 -33 0 -14 28 34 50 28 13 50 29 50 37 0 7 7 13 16 13 9 0 12 -5 8 -12z
m-254 -153 c-5 -14 -7 -25 -4 -25 3 0 2 -5 -1 -10 -4 -6 -11 -8 -16 -4 -6 4
-6 11 2 20 6 8 8 14 4 14 -4 0 -2 7 5 15 18 22 21 19 10 -10z m157 -8 c10 0
10 -4 1 -15 -9 -10 -13 -11 -16 -3 -3 9 -7 9 -18 0 -8 -6 -11 -15 -8 -20 7
-12 60 16 67 36 9 21 24 19 37 -5 6 -11 7 -20 3 -19 -22 4 -23 -3 -3 -19 l21
-17 -29 -38 c-26 -33 -30 -35 -35 -17 -3 11 -1 18 4 14 5 -3 6 1 3 9 -3 9 4
22 18 31 12 9 18 16 13 17 -6 0 -18 2 -28 4 -9 2 -23 -3 -31 -10 -7 -8 -16
-11 -20 -8 -3 4 -7 0 -8 -8 0 -8 -2 -18 -3 -24 -2 -5 -4 -19 -5 -30 -1 -11 -4
-15 -6 -8 -6 13 -34 6 -34 -9 0 -5 4 -7 9 -3 13 8 18 -3 26 -62 4 -31 3 -53
-2 -53 -5 0 -10 6 -11 13 -4 52 -7 64 -19 78 -14 17 -10 84 7 104 5 7 6 16 2
20 -4 5 -2 6 3 2 6 -3 11 3 11 14 0 19 -1 19 -13 3 -7 -10 -13 -23 -13 -30 0
-7 -5 -16 -12 -20 -8 -5 -9 0 -4 17 4 13 8 30 10 37 4 20 29 32 51 25 11 -3
26 -6 32 -6z m542 -44 c0 -5 -4 -17 -9 -28 -8 -18 -9 -17 -9 8 -1 15 4 27 9
27 6 0 10 -3 9 -7z m-349 -10 c0 -14 -19 -38 -25 -32 -8 8 5 39 16 39 5 0 9
-3 9 -7z m440 4 c0 -2 -11 -14 -25 -27 -21 -20 -25 -21 -25 -6 0 9 10 21 23
26 27 11 27 11 27 7z m-628 -48 c-12 -31 5 -73 22 -56 7 7 15 20 19 30 7 18
37 24 37 7 0 -5 -7 -7 -15 -4 -10 4 -15 0 -15 -12 0 -11 -3 -30 -6 -44 -4 -20
-3 -22 5 -10 10 13 11 13 11 0 0 -13 1 -13 10 0 11 17 13 10 4 -13 -3 -9 -14
-12 -29 -9 -14 2 -22 8 -20 12 3 5 1 11 -5 15 -6 3 -10 -4 -11 -17 0 -22 -1
-22 -9 -3 -7 16 -9 14 -9 -15 -1 -25 2 -31 9 -20 7 12 11 10 18 -10 6 -16 6
-27 -1 -32 -14 -8 -34 0 -34 15 0 7 -5 36 -12 66 -8 37 -8 58 -1 65 5 5 10 18
10 28 0 20 23 51 28 39 1 -4 -1 -19 -6 -32z m-440 16 c4 -5 0 -18 -9 -27 -22
-25 -48 -6 -31 22 13 20 28 22 40 5z m72 -16 c-2 -4 4 -9 13 -11 14 -3 10 -8
-14 -20 -18 -9 -33 -13 -33 -8 0 10 -45 3 -72 -11 -11 -6 -22 -8 -25 -5 -3 3
5 10 18 15 13 5 37 23 53 39 24 26 31 29 47 19 10 -6 16 -14 13 -18z m931 11
c-3 -4 2 -13 10 -20 18 -15 20 -33 3 -27 -7 2 -12 10 -10 16 3 15 -11 14 -26
-1 -9 -9 -12 -8 -12 6 0 9 5 14 10 11 6 -3 10 3 10 15 0 12 5 18 10 15 6 -4 8
-10 5 -15z m-665 -20 c-13 -24 -1 -87 12 -68 7 9 8 7 5 -9 -3 -13 -1 -26 4
-29 5 -3 9 -13 8 -22 0 -11 -2 -13 -6 -4 -4 10 -8 10 -19 1 -8 -6 -11 -16 -7
-22 4 -6 1 -7 -6 -3 -8 5 -12 3 -10 -5 3 -28 -2 -38 -23 -45 -20 -6 -19 -7 12
-20 18 -8 30 -17 27 -20 -7 -8 18 -34 32 -34 6 0 11 -4 11 -10 0 -5 11 -10 25
-10 14 0 25 -5 25 -11 0 -5 -4 -7 -10 -4 -15 10 -72 -24 -63 -38 4 -7 8 -16 8
-22 0 -5 12 -9 28 -7 15 2 27 -1 27 -8 0 -6 -5 -8 -11 -4 -7 4 -10 1 -7 -7 6
-17 39 -13 54 7 13 16 44 19 44 4 0 -6 -4 -9 -9 -8 -5 2 -9 -1 -10 -7 0 -5 9
-9 21 -7 13 3 19 -1 16 -10 -5 -13 -48 -21 -48 -9 0 4 -11 8 -25 9 -31 2 -32
-6 -2 -18 l22 -9 -22 0 c-12 -1 -35 11 -51 27 -16 15 -42 37 -58 48 l-29 22
30 12 c27 11 28 13 10 20 -11 4 -23 3 -26 -2 -5 -8 -39 33 -39 47 0 4 15 -3
34 -14 34 -22 56 -27 56 -13 0 7 -22 21 -72 44 -21 9 -28 19 -27 38 1 14 -2
33 -6 43 -4 10 -3 17 3 17 6 0 14 -9 17 -21 5 -16 10 -18 18 -10 9 9 8 14 -3
22 -11 8 -12 12 -3 15 8 4 6 11 -8 25 -10 10 -19 27 -19 37 0 11 -14 25 -36
35 -28 14 -33 21 -25 31 6 7 7 17 3 21 -4 4 7 0 25 -10 25 -15 30 -22 21 -32
-8 -11 -7 -12 6 -7 9 3 16 12 16 20 0 15 21 15 32 -1 5 -6 8 -3 8 7 0 9 3 25
6 35 6 16 5 16 -9 -2 -9 -11 -17 -15 -17 -9 0 16 21 33 36 27 10 -4 11 -10 4
-23z m562 -118 c10 -8 16 -17 15 -21 -3 -8 54 -83 70 -94 7 -4 13 -13 13 -19
0 -6 -10 -3 -22 8 -22 19 -23 19 -8 -1 8 -11 22 -25 30 -32 8 -6 12 -15 7 -19
-8 -9 -57 15 -57 28 0 5 5 6 10 3 15 -9 12 1 -4 14 -11 9 -16 9 -22 0 -5 -8
-3 -9 6 -4 9 6 11 4 5 -4 -9 -15 -27 0 -31 25 -2 12 4 15 22 11 31 -5 30 0 -1
25 -14 11 -25 26 -25 34 0 8 -8 14 -17 14 -14 0 -15 2 -5 9 10 6 9 11 -5 22
-10 7 -15 9 -11 5 4 -5 0 -15 -10 -23 -9 -8 -11 -11 -3 -7 9 4 12 3 7 -4 -4
-6 -14 -8 -22 -5 -13 5 -15 1 -10 -18 7 -23 6 -23 -8 -5 -11 14 -13 22 -5 27
8 5 8 8 0 13 -6 4 -9 12 -6 17 3 5 0 6 -8 3 -9 -3 -12 -15 -9 -32 4 -26 4 -26
-11 -7 -15 20 -10 37 17 57 14 10 79 -3 98 -20z m-662 -4 c0 -6 7 -8 15 -5 12
5 12 2 3 -19 -8 -17 -14 -21 -19 -12 -4 7 -6 15 -3 19 2 4 -3 9 -11 13 -8 3
-15 10 -15 15 0 6 7 8 15 5 8 -4 15 -11 15 -16z m254 -37 c-6 -6 -24 19 -24
34 1 6 7 1 15 -9 8 -11 12 -22 9 -25z m120 -38 c-2 -27 -3 -50 -4 -52 0 -2 -7
2 -15 9 -11 9 -13 16 -5 24 5 5 10 20 10 31 0 18 7 35 16 35 1 0 0 -21 -2 -47z
m-217 23 c-4 -9 4 -16 24 -20 16 -3 29 -10 29 -16 0 -7 -9 -9 -22 -5 -18 5
-19 4 -8 -4 21 -14 7 -23 -24 -15 -14 3 -32 19 -40 34 -15 30 -15 30 38 39 4
0 6 -5 3 -13z m103 -16 c8 -5 11 -10 5 -10 -5 0 -3 -5 5 -11 12 -8 10 -9 -8
-7 -12 2 -22 7 -22 12 1 5 -4 13 -12 17 -10 7 -10 9 2 9 8 0 22 -5 30 -10z m4
-59 c14 -12 20 -13 23 -3 7 19 22 14 18 -5 -2 -10 -4 -22 -4 -26 -1 -5 -8 -2
-16 6 -8 9 -24 13 -36 10 l-22 -6 24 -18 c28 -21 24 -23 -19 -8 -38 13 -48 35
-21 49 11 6 16 16 13 22 -8 13 12 3 40 -21z m-84 -15 c0 -22 -23 -24 -42 -4
-17 17 -17 18 12 18 19 0 30 -5 30 -14z m182 -15 c7 -14 21 -32 31 -39 9 -7
17 -20 17 -28 0 -8 7 -14 16 -14 8 0 13 -3 11 -7 -3 -5 13 -21 34 -38 21 -16
38 -36 39 -42 0 -7 6 -13 14 -13 7 0 20 -8 27 -17 13 -15 11 -16 -20 -10 -18
4 -41 7 -51 7 -10 0 -23 13 -30 30 -7 17 -24 39 -37 50 -22 17 -28 18 -52 6
-32 -17 -56 -7 -65 27 -4 16 -17 28 -38 34 -22 7 -26 11 -13 12 11 0 27 -4 35
-9 17 -10 39 20 40 56 0 29 26 26 42 -5z m372 -42 c-3 -5 -1 -9 5 -9 5 0 11 5
13 12 4 12 38 4 38 -9 0 -7 -58 -10 -70 -3 -3 1 -20 3 -38 4 -24 1 -32 -2 -30
-13 2 -8 9 -16 17 -19 8 -3 11 0 7 7 -8 12 4 15 19 3 13 -9 37 -52 30 -52 -3
0 -18 8 -32 18 -21 13 -25 14 -19 2 5 -8 -4 -3 -20 12 l-28 28 21 22 c18 17
25 19 36 9 12 -9 16 -8 21 5 5 13 9 14 21 4 8 -7 12 -16 9 -21z m-514 -9 c0
-5 -5 -10 -11 -10 -8 0 -8 -5 1 -15 11 -13 8 -15 -16 -13 -54 3 -73 34 -26 41
49 7 52 7 52 -3z m259 -28 c0 -11 -2 -12 -6 -4 -2 6 -9 10 -14 7 -5 -4 -6 1
-3 9 8 20 24 11 23 -12z m154 -7 c12 -25 23 -35 39 -35 21 0 21 -1 6 -17 -14
-13 -20 -14 -32 -3 -9 7 -16 22 -16 33 0 11 -3 17 -7 14 -8 -8 -33 25 -27 35
10 15 21 7 37 -27z m155 -28 c-8 -16 -12 -17 -19 -6 -4 7 -10 11 -14 8 -3 -3
5 -14 17 -25 12 -10 18 -13 14 -6 -10 17 -4 16 58 -17 45 -23 55 -25 53 -12
-1 9 -7 22 -11 30 -7 11 -4 13 15 8 13 -4 37 -7 53 -7 l29 0 -26 -20 c-14 -11
-30 -20 -36 -20 -6 0 -18 -11 -27 -25 -13 -21 -24 -25 -58 -24 -32 2 -35 3
-12 6 16 3 35 10 42 17 10 11 5 18 -29 36 -31 18 -38 19 -28 7 7 -9 10 -17 6
-17 -4 0 -2 -7 5 -15 11 -13 5 -15 -47 -15 -52 0 -59 2 -59 20 0 24 12 26 24
4 5 -9 18 -14 33 -12 22 3 21 4 -12 20 -52 25 -65 44 -37 51 18 5 20 9 10 19
-10 10 -6 15 20 24 38 13 53 1 36 -29z m-179 -3 c7 5 11 -2 11 -18 0 -18 4
-24 15 -20 8 4 15 1 15 -5 0 -6 5 -10 11 -8 6 1 13 -3 16 -9 2 -7 -6 -11 -21
-10 -13 0 -22 4 -19 9 2 4 -2 7 -10 7 -7 0 -20 12 -28 28 -18 36 -23 50 -11
33 5 -7 15 -10 21 -7z m-474 -34 c-6 -9 30 -29 63 -36 8 -1 19 -9 25 -17 17
-20 41 -27 58 -16 12 7 12 9 -1 10 -8 1 -22 1 -30 0 -11 0 -11 1 -2 5 10 5 10
9 1 20 -14 17 2 19 20 2 10 -11 11 -9 5 6 -6 16 -5 17 14 7 23 -12 42 -41 42
-64 0 -10 -18 -19 -49 -27 -57 -14 -93 -2 -120 39 l-16 25 29 -19 c22 -15 28
-16 24 -5 -2 8 -20 20 -39 27 -19 6 -33 16 -31 22 1 6 -2 11 -7 11 -5 0 -16
12 -25 26 l-17 25 31 -16 c17 -9 28 -20 25 -25z m255 10 c0 -5 5 -10 11 -10 5
0 7 6 3 13 -5 8 -3 8 9 -2 9 -7 15 -17 12 -21 -3 -5 -1 -11 5 -15 19 -12 10
-42 -15 -53 -38 -17 -41 -16 -83 29 -42 46 -49 59 -33 59 6 0 10 -3 9 -7 -2
-5 2 -10 7 -11 18 -6 35 -24 30 -32 -5 -9 36 -7 52 3 7 4 16 0 22 -10 14 -23
14 -7 1 18 -12 22 -30 25 -30 6 0 -8 -7 -14 -15 -14 -8 0 -16 6 -19 14 -4 8 2
13 16 13 17 0 18 2 8 15 -9 10 -9 15 -1 15 6 0 11 -4 11 -10z m-280 -41 c0
-14 -16 -11 -29 5 -10 12 -8 13 8 9 12 -3 21 -9 21 -14z m868 -25 c-4 -24 -58
-33 -58 -10 0 9 6 13 14 10 8 -3 16 4 19 18 5 17 9 20 18 11 6 -6 9 -19 7 -29z"/>
<path d="M3704 1733 c-3 -13 -11 -23 -16 -23 -6 0 -5 -6 2 -15 6 -8 9 -19 5
-25 -4 -6 -1 -18 6 -27 8 -9 14 -23 14 -31 0 -15 7 -17 69 -27 16 -2 33 -10
37 -17 7 -10 9 -9 9 5 0 9 5 16 12 15 7 -2 12 2 13 9 0 6 3 15 8 19 12 13 8
24 -8 18 -9 -4 -19 3 -26 20 -7 14 -15 23 -19 21 -4 -3 -13 8 -20 24 -13 32
-35 46 -46 30 -3 -6 -11 -3 -20 8 -13 17 -14 17 -20 -4z m70 -28 c5 -14 -22
-13 -47 2 -6 4 -4 -5 6 -20 22 -34 22 -39 -5 -35 -13 2 -22 6 -20 11 1 4 2 18
2 30 0 20 5 24 29 25 16 0 32 -6 35 -13z"/>
<path d="M3903 1628 c3 -10 2 -20 -4 -24 -6 -3 -8 -12 -5 -19 5 -14 -23 -45
-42 -45 -6 0 -14 -5 -18 -12 -5 -7 -2 -8 7 -3 10 5 11 5 4 -3 -5 -5 -19 -12
-30 -15 -14 -3 -11 -5 10 -6 20 0 38 8 54 24 13 14 27 25 32 25 5 0 6 14 2 32
-4 22 -3 29 5 24 18 -11 14 10 -5 25 -15 12 -16 12 -10 -3z"/>
<path d="M3942 1613 c-8 -14 -9 -29 -3 -45 l10 -23 0 23 c1 14 5 21 12 16 6
-3 8 -17 5 -30 -5 -20 -3 -23 20 -21 23 2 29 -5 45 -45 18 -48 18 -48 -1 -48
-16 0 -20 -7 -20 -34 0 -35 13 -55 25 -36 3 5 1 10 -4 10 -6 0 -11 5 -11 11 0
5 4 8 9 5 5 -3 11 1 15 9 3 8 12 15 20 15 13 0 13 4 1 28 -8 15 -21 43 -29 63
-9 20 -23 42 -33 50 -11 9 -14 10 -9 2 4 -7 4 -13 1 -13 -3 0 -14 19 -24 42
-17 41 -18 42 -29 21z"/>
<path d="M3790 1570 c0 -17 17 -47 23 -40 2 3 -2 16 -10 30 -7 14 -13 18 -13
10z"/>
<path d="M3890 1430 c0 -6 6 -13 14 -16 8 -3 12 -12 9 -20 -6 -16 24 -31 37
-18 6 6 -5 21 -25 37 -19 15 -35 23 -35 17z"/>
<path d="M3950 1418 c0 -5 9 -21 20 -35 14 -18 20 -21 20 -10 0 9 -5 19 -12
23 -8 5 -6 11 6 19 14 11 14 13 -9 13 -14 0 -25 -5 -25 -10z"/>
<path d="M3751 1441 c13 -11 26 -17 28 -15 5 5 -30 33 -43 34 -4 0 2 -9 15
-19z"/>
<path d="M3740 1420 c0 -5 9 -14 20 -20 22 -12 27 -1 8 18 -14 14 -28 16 -28
2z"/>
<path d="M3250 1120 c-6 -11 -9 -26 -7 -33 3 -7 10 1 16 17 14 35 7 47 -9 16z"/>
<path d="M3290 1036 c0 -8 5 -18 10 -21 6 -3 10 1 10 9 0 8 -4 18 -10 21 -5 3
-10 -1 -10 -9z"/>
<path d="M2904 1079 c-19 -22 -19 -22 4 -10 12 6 22 16 22 21 0 15 -5 12 -26
-11z"/>
<path d="M3092 1051 c4 -13 18 -16 19 -4 0 4 -5 9 -11 12 -7 2 -11 -2 -8 -8z"/>
<path d="M3163 1013 c0 -8 6 -12 14 -9 7 3 13 1 13 -4 0 -9 -14 -14 -32 -11
-13 2 -9 -9 12 -31 14 -16 23 -19 31 -11 7 7 8 13 0 17 -6 4 -8 20 -5 36 5 24
3 29 -13 27 -11 0 -20 -7 -20 -14z"/>
<path d="M1450 1810 c0 -19 5 -25 23 -27 15 -3 16 0 7 17 -11 21 -30 27 -30
10z"/>
<path d="M1780 1809 c0 -8 10 -25 21 -39 l20 -25 -17 35 c-20 43 -24 47 -24
29z"/>
<path d="M886 1795 c-6 -17 5 -20 21 -4 7 7 13 8 17 0 4 -6 -11 -19 -34 -31
-25 -13 -40 -16 -40 -9 0 8 -4 9 -13 0 -8 -6 -16 -9 -19 -6 -3 3 -10 -7 -17
-21 l-11 -26 30 22 c28 20 35 19 31 -4 -1 -4 15 6 36 23 41 34 58 39 50 16 -9
-22 11 -29 37 -12 18 12 24 13 32 2 11 -16 69 -31 59 -15 -3 5 -18 10 -32 10
-15 0 -24 3 -20 6 5 5 94 8 134 5 4 -1 -2 -7 -12 -15 -10 -7 -28 -11 -39 -8
-12 3 -18 1 -14 -3 4 -4 0 -14 -10 -21 -16 -12 -16 -13 4 -14 11 0 31 10 44
22 24 23 70 32 80 17 3 -5 18 -2 34 6 34 18 40 18 89 4 21 -5 35 -14 32 -19
-3 -6 1 -7 9 -4 23 9 20 14 -14 25 -16 6 -27 15 -24 20 3 5 -16 9 -41 9 -25 0
-44 -4 -41 -9 9 -14 -25 -23 -40 -11 -7 6 -18 10 -26 8 -15 -3 -80 22 -88 34
-3 4 -23 3 -44 -3 -28 -8 -46 -8 -62 0 -13 6 -31 8 -41 4 -11 -4 -14 -3 -9 5
5 8 -1 12 -17 12 -14 0 -27 -7 -31 -15z"/>
<path d="M1640 1804 c0 -5 18 -28 40 -49 22 -21 40 -35 40 -29 0 5 -18 28 -40
49 -22 21 -40 35 -40 29z"/>
<path d="M1729 1792 c6 -12 16 -24 22 -28 8 -4 8 -1 0 14 -6 12 -16 24 -22 28
-8 4 -8 1 0 -14z"/>
<path d="M1700 1795 c0 -16 51 -87 58 -81 3 3 -4 16 -15 29 -11 12 -25 31 -31
42 -6 11 -12 15 -12 10z"/>
<path d="M1612 1752 c25 -9 55 -24 65 -33 35 -31 48 -32 20 -2 -15 17 -45 35
-66 42 -58 17 -72 12 -19 -7z"/>
<path d="M1152 1712 c-23 -18 -23 -18 -4 -40 11 -12 26 -22 35 -22 9 0 20 -7
25 -16 5 -9 29 -17 65 -21 31 -3 57 -8 57 -11 0 -3 -7 -14 -16 -24 -16 -17
-15 -18 23 -14 22 2 45 6 52 10 17 11 13 0 -6 -20 -17 -17 -16 -17 9 -11 14 4
28 4 30 -1 5 -12 104 -42 140 -42 19 0 39 5 46 12 15 15 16 3 2 -23 -9 -15 -7
-19 7 -19 15 0 16 -2 3 -10 -11 -8 -8 -9 13 -4 36 8 35 -11 -3 -55 -17 -19
-27 -37 -23 -40 4 -3 9 -19 10 -35 1 -17 9 -34 18 -38 20 -12 19 -25 -2 -31
-10 -3 -2 -5 17 -6 26 0 31 2 20 9 -13 8 -12 10 3 10 9 0 17 -6 17 -14 0 -8
15 -17 36 -20 40 -8 41 -26 1 -37 -44 -12 -160 -9 -176 4 -12 9 -13 9 -7 0 4
-7 2 -13 -4 -13 -6 0 -10 15 -8 34 1 25 6 32 17 28 9 -3 12 -1 7 6 -4 7 4 9
29 5 38 -6 46 7 21 33 -19 18 -40 18 -33 0 4 -10 -5 -16 -29 -20 -19 -4 -46
-18 -60 -31 -25 -23 -26 -29 -21 -92 4 -59 56 -240 77 -268 4 -5 10 -22 14
-37 4 -19 19 -34 45 -48 l40 -20 4 23 c4 19 4 19 6 -4 1 -34 17 -40 77 -27 61
13 80 29 89 75 5 30 2 40 -21 64 -18 18 -38 29 -56 29 -41 0 -60 40 -35 74 11
15 16 16 42 4 17 -7 33 -17 37 -22 13 -18 132 -20 166 -2 18 9 35 17 39 19 5
1 7 6 5 11 -2 5 3 13 10 17 10 7 9 9 -4 9 -9 0 -24 10 -32 22 -9 12 -16 19
-16 15 0 -4 -9 -3 -19 3 -14 7 -22 7 -26 0 -4 -6 -11 -8 -16 -4 -6 3 -10 0 -8
-7 5 -44 -13 -65 -46 -53 -21 8 -19 18 8 29 12 6 22 17 22 26 0 9 8 24 18 33
23 23 22 44 -1 23 -10 -10 -22 -14 -26 -10 -4 4 -4 0 -1 -9 7 -18 -20 -32 -38
-21 -12 8 -69 11 -61 4 2 -2 -4 -10 -14 -17 -16 -13 -16 -13 1 -14 9 0 17 4
17 9 0 5 11 11 24 13 19 4 24 1 24 -17 0 -19 -5 -22 -39 -19 -45 3 -62 11 -54
25 4 5 2 9 -3 9 -5 0 -9 7 -9 15 0 11 4 12 14 3 16 -13 24 -7 26 20 0 11 6 18
14 15 7 -3 11 -10 10 -16 -1 -6 14 -11 36 -12 20 0 37 3 37 7 0 4 -13 8 -30 8
-16 0 -30 4 -30 8 0 5 19 7 43 5 40 -2 107 22 107 39 0 12 -18 10 -25 -3 -4
-6 -14 -8 -22 -5 -9 4 -21 2 -27 -3 -15 -12 -88 1 -94 17 -2 6 7 16 20 21 13
6 16 10 8 11 -13 0 -13 1 0 10 10 7 11 10 3 11 -7 1 -17 3 -23 4 -5 1 -24 3
-40 4 -17 0 -29 6 -28 13 2 6 -6 14 -17 16 -18 4 -55 34 -55 45 0 3 9 7 20 10
17 4 20 2 15 -13 -5 -15 -2 -17 17 -12 12 3 17 7 10 10 -20 6 -14 22 9 22 11
0 17 -4 14 -10 -3 -5 1 -10 9 -10 9 0 16 -5 16 -11 0 -7 9 -9 21 -6 12 3 28 0
36 -9 16 -16 53 -19 53 -5 0 5 8 12 18 15 9 3 -3 3 -28 1 -32 -4 -41 -2 -30 5
13 9 13 10 0 10 -13 0 -13 2 -1 9 10 7 7 9 -12 8 -14 -1 -25 -6 -24 -12 3 -17
-28 -11 -31 7 -2 11 5 18 20 21 13 3 -8 3 -47 1 -47 -3 -63 -1 -50 5 18 8 16
9 -12 12 l-33 4 34 37 c29 32 32 39 20 49 -8 7 -13 18 -10 26 7 16 -6 17 -23
1 -10 -11 -12 -8 -11 12 3 41 1 43 -25 26 -26 -17 -85 -22 -85 -7 0 7 -33 17
-77 23 -7 1 -10 5 -7 9 2 5 10 7 17 5 7 -1 9 -1 4 1 -4 3 -5 9 -1 14 8 13 -10
11 -24 -3 -23 -23 -20 -2 4 30 16 20 34 32 47 31 16 -1 17 -3 5 -6 -9 -2 -19
-10 -22 -18 -4 -11 0 -11 28 0 19 8 36 11 40 8 3 -4 6 -1 6 5 0 7 7 12 15 12
8 0 15 7 15 15 0 17 -26 20 -36 4 -3 -6 -16 -8 -28 -5 -21 5 -34 0 -97 -41
-42 -28 -68 -31 -48 -6 12 15 12 16 -2 11 -9 -4 -21 -2 -26 3 -5 5 -26 10 -45
11 -25 1 -35 5 -31 14 3 9 -3 11 -19 8 -22 -5 -22 -5 -4 10 11 9 15 16 10 16
-6 0 -14 -4 -19 -8 -6 -5 -21 -3 -35 4 l-25 14 26 0 c15 0 42 3 60 6 26 4 30
3 19 -5 -13 -9 -13 -11 3 -11 9 0 17 4 17 9 0 5 9 11 20 14 11 3 20 13 20 22
0 9 -6 15 -12 12 -7 -2 -12 -9 -11 -15 1 -5 -17 -12 -41 -14 -24 -1 -42 0 -39
5 2 4 13 7 23 7 10 0 22 5 26 12 4 7 3 8 -4 4 -19 -11 -104 -17 -97 -6 9 14 3
12 -23 -8z m363 -489 c-6 -2 -9 -18 -7 -37 2 -18 -1 -37 -7 -40 -7 -5 -10 7
-8 36 2 40 15 64 27 51 3 -3 0 -7 -5 -10z m237 -43 c6 0 4 -8 -5 -18 -10 -10
-14 -22 -10 -25 3 -4 -8 -7 -26 -7 -27 0 -31 -3 -26 -19 3 -11 0 -23 -6 -27
-7 -4 -9 -3 -5 4 3 6 2 13 -3 16 -5 3 -11 -3 -14 -13 -4 -15 0 -19 14 -16 10
2 26 -3 34 -11 15 -16 12 -34 -6 -34 -6 0 -8 4 -5 9 3 5 -1 11 -9 15 -9 3 -15
0 -15 -8 0 -7 -9 -21 -19 -30 -19 -17 -19 -46 1 -46 5 0 6 5 3 10 -3 6 -2 10
3 10 5 0 9 -13 8 -30 -1 -30 -10 -38 -21 -20 -3 6 -17 10 -31 10 -18 0 -24 5
-23 23 0 12 3 16 6 10 5 -14 33 -18 33 -5 0 5 -6 16 -13 26 -15 21 -67 13 -67
-11 0 -12 3 -13 14 -4 11 9 13 4 11 -29 -2 -45 -15 -68 -15 -27 0 14 -4 29
-10 32 -5 3 -10 16 -10 28 0 12 -7 31 -15 41 -8 11 -15 14 -15 7 0 -7 -4 -9
-10 -6 -13 8 -13 55 0 55 5 0 9 -3 8 -7 -2 -5 2 -9 7 -10 6 -1 13 -12 17 -25
6 -22 6 -22 7 -1 1 15 9 23 32 28 41 9 50 -2 11 -16 -17 -6 -33 -16 -36 -24
-4 -11 0 -11 22 1 14 7 29 10 32 6 3 -4 14 -14 25 -22 19 -15 19 -15 2 12 -21
33 -21 38 -2 38 8 0 16 5 16 10 1 6 2 15 3 21 0 6 10 17 20 25 11 7 16 17 12
21 -4 5 -16 -2 -26 -14 -10 -13 -24 -23 -32 -24 -7 0 -4 -4 6 -8 18 -7 18 -8
3 -14 -9 -3 -17 -2 -17 4 0 6 -10 8 -22 5 -13 -3 -17 -3 -10 0 6 3 10 9 7 14
-3 4 3 7 12 6 10 0 18 4 18 11 0 19 13 26 51 30 23 2 33 0 29 -7 -3 -5 0 -7 9
-4 8 3 17 13 20 21 5 13 4 14 -9 3 -8 -7 -15 -8 -15 -3 0 16 13 24 28 18 7 -3
18 -5 24 -5z m-64 -5 c-2 -2 -15 -5 -28 -7 -34 -5 -102 -58 -96 -75 9 -24 -24
-14 -35 11 -9 19 -7 28 11 49 20 23 30 26 87 26 36 0 63 -2 61 -4z m158 -100
c-10 -8 -24 -11 -30 -8 -6 4 0 10 14 14 36 10 37 10 16 -6z m102 -7 c7 -7 12
-17 12 -22 0 -6 -5 -4 -11 4 -9 12 -10 12 -5 -3 3 -10 0 -27 -7 -38 -17 -24
-30 -13 -16 14 7 12 7 17 1 13 -12 -7 -21 13 -14 32 5 15 24 16 40 0z m-138
-40 c0 -10 -31 -10 -48 0 -8 6 -2 9 18 9 16 0 30 -4 30 -9z m70 -18 c-36 -28
-46 -24 -13 4 15 13 30 22 33 19 3 -2 -6 -13 -20 -23z m-174 -71 c3 -6 0 -15
-7 -20 -22 -14 -28 -11 -22 11 6 22 18 26 29 9z m-70 -21 c0 -7 3 -14 8 -15
13 -2 28 -32 21 -43 -3 -5 -11 -8 -18 -6 -7 1 -9 1 -4 -1 13 -8 7 -23 -7 -17
-8 3 -17 1 -21 -5 -3 -6 -13 -11 -21 -11 -8 0 -12 4 -9 10 3 5 1 19 -5 30 -13
24 -5 41 16 33 10 -3 11 -9 5 -17 -5 -6 -6 -18 -2 -25 12 -19 21 1 15 33 -5
28 1 46 15 46 5 0 8 -6 7 -12z m94 -17 c0 -6 -4 -13 -10 -16 -5 -3 -10 -15
-10 -26 0 -14 -7 -19 -27 -19 l-28 1 29 23 c16 13 25 29 22 35 -4 6 0 11 8 11
9 0 16 -4 16 -9z m70 -71 c0 -26 -28 -46 -43 -31 -9 10 -8 11 4 6 24 -9 33 23
14 51 -21 33 -18 43 5 15 11 -13 20 -31 20 -41z m-62 -28 c2 -12 -1 -22 -7
-22 -6 0 -11 7 -11 15 0 8 -4 15 -10 15 -5 0 -10 5 -10 11 0 20 35 4 38 -19z"/>
<path d="M1557 1158 c-7 -19 23 -19 41 -1 11 11 11 13 -2 13 -9 0 -16 -6 -16
-12 0 -10 -2 -10 -9 0 -7 11 -9 11 -14 0z"/>
<path d="M1461 1720 c30 -16 76 -21 76 -8 0 9 -16 13 -45 14 -26 1 -39 -2 -31
-6z"/>
<path d="M3269 1698 c-1 -13 -1 -29 0 -35 3 -22 -18 -14 -35 12 -18 28 -40 24
-24 -5 13 -24 13 -40 0 -20 -8 12 -10 12 -16 -3 -6 -17 -24 -14 -24 4 0 6 4 8
9 4 17 -10 21 11 6 31 -13 17 -14 17 -15 2 0 -9 -2 -22 -5 -30 -3 -7 -1 -20 5
-28 7 -12 12 -12 21 -3 9 9 18 8 41 -8 29 -21 40 -11 13 11 -8 7 -15 17 -15
22 0 16 40 -18 72 -61 17 -23 33 -40 35 -37 3 3 -7 21 -22 40 -22 29 -24 37
-13 41 13 5 12 12 -5 45 -22 46 -27 49 -28 18z"/>
<path d="M3310 1702 c0 -4 7 -18 16 -30 8 -12 12 -22 8 -22 -5 0 -3 -5 4 -12
15 -15 16 -32 1 -22 -11 6 -8 -10 12 -62 8 -22 45 -38 54 -23 3 4 13 5 22 2
10 -4 14 -2 10 4 -4 6 -23 10 -42 9 -20 -2 -33 -1 -30 2 2 3 0 11 -6 19 -9 10
-7 13 10 13 21 0 21 1 7 22 -19 27 -21 42 -4 32 6 -4 -1 11 -18 34 -27 39 -44
52 -44 34z"/>
<path d="M350 1681 c-18 -35 -11 -41 25 -20 37 22 49 37 16 19 -26 -14 -31
-13 -25 5 9 22 -3 18 -16 -4z"/>
<path d="M1605 1682 c2 -9 4 -19 4 -22 1 -3 12 -5 25 -5 13 0 22 4 18 9 -3 5
10 7 29 3 l34 -6 -30 13 c-16 7 -42 16 -57 20 -21 5 -26 3 -23 -12z"/>
<path d="M3085 1678 c3 -17 1 -28 -5 -28 -6 0 -8 -4 -5 -10 3 -5 1 -10 -4 -10
-20 0 -11 -30 14 -46 l25 -16 -25 -20 c-21 -16 -23 -22 -12 -39 17 -27 28 -24
23 6 -3 18 1 29 15 38 24 15 25 37 0 37 -10 0 -21 7 -25 15 -3 8 -1 15 5 15 6
0 8 4 5 9 -3 4 7 6 22 4 l27 -5 -21 19 c-12 10 -27 27 -33 38 -11 18 -12 17
-6 -7z"/>
<path d="M200 1675 c-5 -6 -5 -17 -1 -24 6 -9 11 -10 15 -2 10 16 23 14 23 -4
0 -8 -3 -12 -7 -10 -3 2 -7 -6 -7 -17 -2 -18 0 -19 12 -7 8 8 17 28 21 46 6
29 4 31 -21 30 -15 -1 -31 -7 -35 -12z"/>
<path d="M293 1661 c-10 -16 -9 -19 4 -17 9 2 17 10 19 19 3 23 -8 21 -23 -2z"/>
<path d="M394 1645 c-4 -8 -4 -21 -1 -29 3 -7 1 -18 -5 -24 -7 -7 -6 -17 3
-33 20 -36 21 -66 4 -73 -12 -4 -13 -2 -6 12 6 11 6 24 1 32 -7 12 -10 11 -16
-3 -3 -10 -4 -20 -1 -24 9 -8 -21 -63 -34 -63 -6 0 -8 7 -5 16 3 9 6 20 6 25
0 6 3 8 8 6 7 -5 12 21 15 76 1 15 5 27 10 27 4 0 7 14 7 31 0 28 -1 29 -16
15 -16 -17 -28 -100 -13 -90 12 7 -6 -39 -27 -71 -18 -27 -29 -26 -37 5 -3 11
-1 18 4 14 5 -3 9 -13 9 -22 0 -9 9 1 20 23 11 22 16 41 10 45 -5 3 -5 11 0
19 4 8 4 25 -1 38 -12 32 -11 36 3 27 7 -5 8 -3 3 5 -5 9 -13 7 -29 -8 -12
-12 -27 -18 -32 -14 -5 4 -4 1 3 -6 8 -10 9 -20 2 -33 -5 -10 -7 -23 -4 -28 3
-6 1 -10 -4 -10 -6 0 -11 6 -11 14 0 8 -3 23 -6 33 -5 15 -4 15 5 3 13 -18 14
-1 1 20 -7 11 -11 9 -19 -14 -9 -21 -8 -31 4 -42 8 -9 15 -20 15 -25 0 -15
-18 -10 -28 8 -9 14 -11 14 -21 -6 -10 -17 -9 -22 3 -27 8 -3 24 -1 35 5 18
10 20 8 23 -26 2 -32 7 -38 25 -37 12 0 20 -3 17 -8 -3 -4 6 -8 20 -8 14 0 26
5 26 12 0 6 6 3 14 -7 13 -18 14 -18 26 5 10 18 14 20 21 9 6 -10 9 -11 9 -1
0 6 8 12 18 12 13 0 14 2 3 9 -10 7 -10 10 -1 16 7 4 16 2 21 -6 6 -11 9 -10
15 4 3 9 10 15 14 12 13 -8 21 11 14 29 -6 14 -8 14 -24 -4 -9 -11 -23 -20
-30 -20 -9 0 -8 5 3 18 10 10 17 25 17 33 0 8 -11 -4 -25 -25 -13 -22 -31 -41
-40 -42 -12 -2 -11 3 5 23 11 14 17 29 14 34 -3 5 1 9 8 9 9 0 10 3 2 8 -6 4
-10 15 -8 25 1 9 -2 15 -7 11 -5 -3 -7 -9 -4 -14 3 -4 -2 -10 -10 -14 -17 -6
-19 7 -5 34 7 13 7 21 0 25 -5 3 -10 13 -10 21 0 8 5 12 10 9 6 -3 10 -1 10 4
0 16 -20 13 -26 -4z m-77 -42 c-4 -3 -1 -13 6 -21 10 -13 9 -14 -2 -7 -11 6
-13 4 -8 -8 3 -9 2 -19 -2 -22 -5 -3 -7 -14 -4 -25 4 -16 2 -19 -11 -14 -12 5
-13 10 -5 25 6 12 6 19 0 19 -5 0 -3 14 5 30 9 17 18 30 21 30 4 0 3 -3 0 -7z"/>
<path d="M1730 1645 c0 -3 30 -21 68 -40 37 -20 58 -33 47 -29 -11 3 -34 7
-52 8 -17 1 -42 10 -55 21 -22 19 -22 19 1 -8 15 -16 35 -27 50 -27 14 0 43
-5 63 -10 28 -8 44 -8 60 1 16 8 19 14 10 17 -8 2 -18 0 -24 -6 -6 -6 -23 -1
-49 16 -30 20 -36 28 -24 32 11 4 7 9 -15 17 -27 10 -30 10 -20 -3 16 -18 -1
-18 -26 1 -19 15 -34 19 -34 10z"/>
<path d="M155 1630 c-3 -5 2 -10 12 -10 15 0 19 -8 19 -40 2 -62 16 -69 27
-15 4 17 4 24 1 18 -10 -24 -26 -14 -20 12 5 18 1 27 -13 35 -13 7 -22 7 -26
0z"/>
<path d="M1593 1614 c-27 -21 -36 -23 -55 -14 -22 11 -22 10 -4 -4 11 -9 14
-16 7 -16 -7 0 -9 -5 -6 -10 8 -13 35 1 73 40 37 37 29 39 -15 4z"/>
<path d="M1880 1622 c0 -5 19 -9 43 -10 30 -1 38 1 27 8 -18 12 -70 13 -70 2z"/>
<path d="M2514 1620 c-33 -13 -43 -60 -12 -60 7 0 6 6 -2 15 -10 12 -10 15 4
15 9 0 16 5 16 10 0 6 7 10 16 8 10 -2 19 3 21 10 5 14 -12 15 -43 2z"/>
<path d="M1680 1612 c0 -17 54 -72 72 -72 7 0 1 8 -14 18 -16 9 -28 19 -28 22
0 13 -29 44 -30 32z"/>
<path d="M2630 1610 c0 -4 16 -10 35 -12 19 -2 35 0 35 4 0 4 -8 8 -17 9 -10
0 -26 2 -35 4 -10 2 -18 0 -18 -5z"/>
<path d="M3473 1601 c4 -29 17 -39 17 -13 0 11 -5 24 -10 27 -6 4 -9 -2 -7
-14z"/>
<path d="M1596 1568 c-30 -15 -44 -17 -60 -9 -12 5 -32 13 -46 16 -23 6 -23 5
5 -14 41 -28 87 -27 122 4 33 29 31 29 -21 3z"/>
<path d="M2980 1549 c0 -6 7 -18 16 -26 8 -9 13 -25 11 -35 -5 -16 -3 -17 9
-7 18 15 18 35 -1 43 -8 3 -15 12 -15 21 0 8 -4 15 -10 15 -5 0 -10 -5 -10
-11z"/>
<path d="M2066 1521 c-19 -21 -12 -28 13 -12 7 5 12 14 9 21 -2 7 -10 4 -22
-9z"/>
<path d="M2403 1518 c0 -22 4 -28 21 -28 16 0 18 2 7 9 -11 7 -10 10 5 14 17
4 16 5 -3 6 -12 0 -23 7 -26 14 -2 6 -4 0 -4 -15z"/>
<path d="M2557 1534 c-3 -4 -3 -19 0 -35 3 -19 1 -29 -6 -29 -29 0 1 -16 34
-18 23 -2 34 1 30 8 -3 5 -15 10 -26 10 -16 0 -19 5 -16 28 3 18 9 26 21 24 9
-2 16 2 16 8 0 11 -43 14 -53 4z"/>
<path d="M1845 1520 c3 -5 16 -10 28 -9 21 0 21 1 2 9 -28 12 -37 12 -30 0z"/>
<path d="M1899 1509 c-9 -17 -8 -24 2 -31 10 -7 6 -8 -13 -5 -15 2 -25 1 -23
-3 3 -4 -13 -10 -35 -14 -22 -3 -40 -10 -40 -16 0 -5 12 -5 29 1 21 7 36 7 50
0 11 -6 30 -11 42 -11 22 0 22 0 3 14 -18 14 -18 15 -1 21 14 6 15 10 6 21 -9
11 -8 14 3 14 8 0 15 7 15 15 0 22 -25 18 -38 -6z"/>
<path d="M2135 1518 c-11 -6 -22 -12 -24 -14 -2 -2 6 -16 17 -32 14 -19 18
-32 11 -39 -6 -6 -1 -19 14 -37 18 -20 30 -26 50 -22 20 3 25 1 20 -11 -4 -9
1 -21 10 -28 17 -12 17 -39 -1 -57 -8 -8 -15 -8 -27 2 -11 9 -13 16 -5 24 5 5
10 17 10 26 0 10 -6 8 -20 -10 -26 -33 -25 -45 5 -58 16 -7 23 -17 19 -27 -3
-8 -2 -15 4 -15 5 0 12 15 16 33 5 23 9 28 15 18 5 -8 11 -9 15 -3 3 6 0 13
-6 16 -7 3 -3 3 10 0 16 -4 22 -1 22 11 0 25 -20 56 -31 49 -7 -4 -7 1 0 14 9
17 8 22 -9 27 -11 3 -33 7 -50 7 -18 1 -30 6 -30 15 0 7 -8 13 -17 13 -14 0
-12 5 8 27 18 20 20 25 7 20 -12 -4 -18 -1 -18 8 0 8 -6 15 -12 15 -8 0 -5 7
6 15 24 18 18 27 -9 13z"/>
<path d="M1740 1513 c0 -14 47 -33 78 -32 22 1 20 3 -12 10 -22 5 -45 14 -53
20 -7 7 -13 7 -13 2z"/>
<path d="M2260 1515 c0 -2 13 -11 30 -20 21 -11 27 -20 23 -32 -4 -11 -3 -14
5 -9 7 4 12 2 12 -3 0 -6 7 -11 15 -11 9 0 18 -7 21 -15 4 -8 11 -12 16 -9 6
4 7 -2 3 -17 -7 -21 -6 -22 9 -7 8 9 21 18 28 20 17 6 2 24 -34 42 -38 19 -41
20 -32 4 4 -8 3 -10 -2 -5 -5 5 -9 12 -9 16 0 15 -35 42 -60 47 -14 2 -25 2
-25 -1z"/>
<path d="M1980 1480 c0 -5 -8 -7 -17 -4 -14 5 -15 4 -4 -4 7 -5 22 -7 32 -5
23 6 24 9 4 17 -8 3 -15 1 -15 -4z"/>
<path d="M2055 1481 c-32 -8 -35 -24 -9 -52 8 -9 12 -18 9 -21 -3 -3 3 -8 15
-11 18 -5 17 -1 -9 32 l-29 37 26 2 c14 1 31 7 36 12 11 11 6 11 -39 1z"/>
<path d="M2062 1447 c10 -8 15 -17 11 -20 -3 -4 -1 -7 5 -7 11 0 27 19 21 24
-2 2 -15 7 -29 10 -23 6 -23 6 -8 -7z"/>
<path d="M2546 1435 c-11 -8 -17 -15 -14 -15 4 0 13 -2 20 -5 9 -4 14 2 15 15
2 24 3 23 -21 5z"/>
<path d="M1955 1429 c-16 -5 -52 -9 -80 -8 -27 1 -59 1 -70 0 -19 -2 -18 -3 3
-11 12 -5 28 -7 35 -5 6 3 30 -2 52 -9 30 -11 36 -16 23 -21 -9 -4 -22 -4 -28
0 -17 10 -60 16 -60 8 0 -5 -21 -6 -47 -4 l-48 5 35 7 35 6 -38 2 c-54 2 -43
-23 11 -27 23 -2 42 -8 42 -13 0 -6 5 -7 12 -3 7 4 24 9 37 10 21 3 23 1 11
-7 -12 -8 -9 -9 10 -5 14 3 31 6 38 6 6 0 12 9 12 20 0 15 -7 20 -27 21 -24 1
-22 3 11 10 31 7 43 6 56 -6 9 -8 20 -12 24 -8 4 4 11 1 16 -7 15 -23 12 -34
-6 -19 -13 11 -21 10 -50 -6 -19 -10 -32 -20 -29 -23 2 -3 12 1 21 9 14 11 18
11 28 -3 8 -11 17 -14 27 -7 19 12 29 11 29 -2 0 -5 -3 -8 -7 -6 -5 3 -14 -1
-21 -9 -11 -12 -10 -14 5 -15 10 0 13 -3 6 -5 -8 -4 -9 -13 -4 -27 4 -12 6
-28 3 -36 -3 -9 0 -11 8 -6 8 5 11 3 8 -6 -3 -8 -11 -13 -17 -12 -18 5 -13
-14 6 -21 10 -4 14 -4 10 0 -4 4 4 17 18 30 17 15 21 25 14 30 -8 4 -4 13 12
26 l24 19 -26 -7 c-29 -6 -49 10 -23 20 8 3 12 2 9 -4 -10 -16 5 -12 36 11 31
21 39 42 14 33 -8 -4 -17 1 -21 10 -4 11 -10 13 -18 7 -7 -6 -17 -6 -26 -1 -8
6 -11 10 -7 10 4 0 3 9 -3 20 -6 11 -16 17 -22 14 -7 -5 -9 -1 -5 9 7 19 -10
21 -58 6z m155 -94 c0 -2 -7 -1 -17 2 -11 4 -14 3 -9 -5 9 -14 -4 -15 -24 -2
-13 9 -13 11 -1 19 14 9 51 -2 51 -14z"/>
<path d="M2656 1419 c3 -5 1 -9 -4 -9 -9 0 -5 -27 13 -86 5 -17 2 -22 -20 -27
-21 -3 -29 0 -32 14 -6 21 -53 27 -53 8 0 -6 9 -9 19 -6 13 3 21 -1 24 -14 4
-15 13 -19 39 -17 33 3 33 3 31 -39 -1 -24 3 -43 8 -43 6 0 7 5 4 10 -3 6 -2
10 4 10 6 0 8 6 5 14 -3 8 -7 37 -9 63 -2 26 -6 61 -9 78 -3 16 0 32 5 36 6 3
1 9 -10 12 -12 3 -19 1 -15 -4z"/>
<path d="M1946 1396 c3 -9 11 -16 16 -16 13 0 5 23 -10 28 -7 2 -10 -2 -6 -12z"/>
<path d="M2302 1375 c17 -19 35 -32 40 -29 14 9 9 22 -13 29 -16 5 -18 10 -8
21 9 12 6 14 -19 14 l-30 0 30 -35z"/>
<path d="M2480 1406 c0 -3 4 -16 9 -29 6 -14 7 -28 3 -31 -12 -13 -11 -41 4
-57 9 -10 11 -20 6 -23 -5 -3 -9 -16 -8 -28 1 -18 6 -22 26 -20 24 4 25 3 5
-12 -14 -11 -16 -15 -6 -16 8 0 11 -3 8 -6 -4 -4 -18 1 -32 10 -22 15 -27 15
-40 2 -11 -11 -12 -16 -2 -19 23 -10 -49 -66 -79 -63 -19 2 -35 -5 -52 -23
-13 -14 -19 -18 -13 -9 11 14 9 16 -10 11 -19 -5 -20 -4 -10 15 10 19 9 21 -6
16 -16 -5 -16 -4 1 10 11 9 15 16 9 16 -15 0 -36 -27 -25 -34 12 -7 9 -46 -6
-73 -18 -33 -15 -39 11 -17 12 11 31 26 41 34 17 13 18 13 11 1 -6 -11 -4 -13
8 -8 18 7 24 -8 7 -18 -5 -3 -10 -14 -10 -23 1 -15 3 -14 16 3 9 11 14 13 10
5 -3 -8 -9 -23 -12 -32 -4 -10 -11 -18 -16 -18 -6 0 -8 6 -5 14 3 8 -1 17 -10
20 -10 4 -12 11 -7 19 5 7 1 5 -8 -6 -16 -17 -16 -20 5 -41 12 -13 25 -22 28
-20 4 2 9 -3 13 -11 3 -8 0 -14 -7 -12 -7 1 -11 -7 -9 -22 1 -13 -3 -30 -9
-37 -16 -20 1 -17 24 4 11 9 17 11 13 4 -4 -7 -3 -11 2 -10 6 2 9 -1 9 -6 -3
-13 -56 -16 -63 -4 -3 5 -17 -1 -31 -14 -25 -23 -25 -23 -14 -1 14 28 14 34
-1 31 -8 -2 -12 6 -11 17 1 18 0 17 -17 -5 -10 -13 -16 -29 -13 -36 3 -9 -2
-11 -17 -7 -27 7 -25 50 3 45 20 -3 21 6 4 29 -17 22 -37 12 -38 -19 0 -25 -1
-25 -10 -7 -7 16 -8 13 -5 -12 3 -18 2 -34 -2 -37 -5 -3 -9 13 -10 35 -2 24 2
39 9 39 7 0 5 9 -5 25 -17 26 -12 34 8 12 6 -7 10 -10 9 -8 -2 2 2 10 9 18 12
15 6 26 -17 29 -8 1 -15 -3 -15 -9 0 -7 -5 -4 -11 6 -8 14 -4 24 25 53 20 20
36 31 36 26 0 -6 8 -12 17 -14 13 -2 11 -7 -11 -22 -16 -10 -25 -13 -22 -7 4
6 3 11 -2 11 -8 0 -22 -22 -22 -35 0 -11 37 5 65 28 19 15 38 27 44 27 5 0 7
10 3 22 -3 12 -7 17 -10 10 -2 -6 -8 -12 -13 -12 -6 0 -7 6 -3 13 6 10 4 10
-7 0 -29 -28 -31 -11 -1 18 18 17 29 36 26 41 -3 5 3 12 15 15 11 3 18 10 14
16 -3 6 -1 7 6 3 6 -4 9 -11 6 -16 -6 -10 23 -22 36 -14 5 3 9 -2 9 -12 0 -14
2 -15 17 -3 15 12 16 12 8 -1 -8 -13 -7 -13 8 -1 18 15 23 26 7 16 -5 -3 -10
-2 -10 4 0 6 -14 9 -30 7 -25 -3 -28 -1 -19 10 9 11 9 14 0 14 -13 0 -35 48
-32 68 4 26 -15 10 -25 -20 -5 -18 -14 -32 -21 -31 -7 2 -10 -7 -7 -22 3 -17
-3 -29 -25 -44 -28 -20 -29 -20 -34 -2 -3 15 -1 18 11 14 10 -4 13 -2 8 5 -4
7 -14 12 -21 12 -17 0 -10 26 13 53 20 23 7 35 -16 14 -18 -16 -52 -23 -52
-11 0 3 5 14 10 25 6 10 7 19 3 19 -12 0 -40 -20 -29 -20 6 0 1 -7 -10 -16
-10 -8 -13 -13 -6 -9 7 3 12 0 12 -8 0 -16 -27 -30 -41 -21 -5 3 -9 0 -9 -6 0
-7 -7 -9 -15 -6 -9 3 -18 -1 -21 -9 -4 -8 -10 -12 -15 -9 -5 3 -8 0 -7 -8 2
-7 -2 -12 -9 -11 -7 2 -10 -4 -7 -12 4 -8 1 -15 -5 -15 -6 0 -11 -5 -11 -11 0
-8 4 -8 13 0 10 8 17 7 25 -1 9 -9 12 -8 12 5 0 9 -5 17 -11 17 -5 0 -7 5 -4
10 3 6 11 10 16 10 6 0 7 -4 4 -10 -3 -5 -1 -10 5 -10 6 0 8 -5 4 -12 -6 -10
-4 -9 8 0 15 12 16 9 13 -22 -4 -43 2 -46 16 -8 10 26 11 27 25 7 14 -18 13
-20 -5 -25 -11 -3 -29 -12 -39 -21 -11 -9 -25 -18 -32 -21 -9 -3 -8 -8 4 -21
10 -9 14 -21 11 -27 -3 -5 -1 -11 4 -11 6 -1 16 -3 21 -4 6 -1 15 -3 20 -4 6
0 8 -12 4 -26 -4 -15 -2 -25 5 -26 6 -1 16 -3 21 -4 6 -1 13 -3 18 -4 4 0 7
-16 7 -34 l0 -33 -142 4 c-93 2 -143 0 -148 -7 -4 -8 43 -12 152 -13 249 -4
266 -5 296 -13 20 -5 33 -3 46 9 15 13 18 14 18 1 0 -8 -4 -12 -9 -9 -4 3 -8
1 -8 -4 0 -15 37 -21 49 -9 7 7 11 7 11 1 0 -6 16 -8 35 -6 19 2 42 -1 49 -7
10 -9 16 -9 21 -1 8 13 106 5 210 -16 82 -16 88 -17 81 -5 -3 4 -40 13 -83 20
-147 22 -143 21 -143 41 0 32 -40 62 -77 58 -17 -2 -29 0 -27 4 3 4 -17 8 -45
8 -27 0 -53 5 -56 10 -4 6 3 27 14 46 12 19 21 52 21 72 0 48 14 72 32 54 16
-16 65 -16 71 1 4 9 7 9 15 -1 11 -16 107 -12 107 4 0 17 43 65 49 55 7 -11
-54 -82 -65 -75 -4 2 -10 0 -14 -6 -4 -6 4 -10 19 -10 14 0 28 -4 31 -10 9
-15 25 -12 25 4 0 8 -7 16 -16 18 -14 3 -13 7 6 31 12 15 27 27 33 27 7 1 26
8 42 16 17 8 22 12 13 10 -10 -3 -20 -1 -23 5 -4 5 -11 7 -16 3 -5 -3 -16 -1
-23 5 -11 9 -17 8 -28 -3 -8 -8 -20 -11 -27 -6 -16 9 -16 20 1 32 9 7 7 8 -9
5 -13 -3 -26 -1 -29 4 -10 17 -22 9 -17 -11 6 -22 5 -22 -47 -25 -19 -1 -45
-7 -58 -14 -21 -11 -22 -11 -10 8 12 20 55 37 66 26 3 -3 -3 -5 -13 -5 -10 0
-16 -3 -12 -6 11 -12 45 7 42 24 -1 9 4 25 13 35 14 15 13 17 -2 17 -9 0 -14
5 -11 10 3 6 -1 10 -11 10 -15 0 -15 2 1 26 17 26 17 27 -4 21 -18 -4 -21 -1
-21 22 0 15 5 32 12 39 9 9 9 12 -2 12 -13 0 -13 2 -1 9 11 7 9 11 -8 20 -11
7 -21 10 -21 7z m-350 -211 c0 -8 5 -15 10 -15 6 0 10 -8 10 -17 0 -15 -2 -16
-10 -3 -12 19 -41 20 -60 1 -9 -9 -15 -10 -18 -3 -2 6 -11 8 -20 5 -14 -4 -14
-3 -2 5 8 6 17 9 20 7 3 -2 17 5 30 16 30 23 40 24 40 4z m6 -57 c3 -5 9 -6
14 -3 4 3 11 -3 14 -12 4 -9 1 -20 -6 -24 -17 -10 -28 -2 -21 16 3 8 0 15 -6
15 -11 0 -15 -13 -12 -38 1 -8 -7 -4 -18 7 -12 12 -25 21 -31 21 -5 0 -7 7 -4
15 6 16 61 18 70 3z m384 -21 c0 -6 -3 -8 -6 -4 -4 3 -15 -4 -25 -16 -10 -12
-18 -16 -19 -9 0 6 5 12 11 12 5 0 7 5 3 12 -5 7 -11 5 -21 -8 -11 -15 -15
-16 -22 -5 -6 9 -11 10 -15 2 -4 -6 -12 -11 -18 -11 -6 0 -6 6 2 15 7 9 21 13
30 10 9 -3 22 1 29 9 13 15 51 10 51 -7z m105 11 c4 -4 -3 -16 -15 -28 -26
-26 -40 -18 -16 9 12 14 14 19 4 17 -23 -3 -38 -17 -32 -29 4 -7 4 -9 -1 -5
-4 4 -14 3 -21 -3 -11 -9 -13 -5 -11 18 2 28 4 29 44 28 23 0 45 -4 48 -7z
m-485 -83 c-7 -8 -17 -15 -23 -15 -5 0 -2 9 8 20 21 23 35 19 15 -5z m-69 -37
c0 -10 2 -10 6 0 2 6 9 12 14 12 12 0 12 -37 0 -44 -16 -10 -40 5 -38 25 1 21
17 27 18 7z m59 -69 c0 -3 -7 -6 -15 -6 -17 0 -17 0 -9 22 5 13 8 14 15 3 5
-7 9 -16 9 -19z m376 -125 c-8 -20 -26 -17 -20 4 5 16 5 16 -9 0 -8 -10 -17
-18 -20 -18 -3 0 -4 8 -3 18 2 9 8 17 14 17 6 0 17 6 24 13 11 11 14 10 16 -3
2 -9 1 -23 -2 -31z m44 7 c0 -9 -8 -17 -18 -18 -15 -1 -17 4 -14 28 4 24 7 27
18 18 8 -6 14 -19 14 -28z m-139 18 c16 -8 18 -13 9 -24 -15 -18 -39 -8 -37
16 1 22 2 22 28 8z"/>
<path d="M2539 1402 c-2 -13 3 -67 6 -71 2 -1 9 0 15 4 8 5 7 11 -2 23 -11 14
-10 15 12 9 22 -5 23 -5 8 7 -10 7 -15 15 -12 18 2 3 -2 8 -11 11 -8 4 -15 3
-16 -1z"/>
<path d="M2414 1388 c-5 -7 -14 -22 -19 -33 -6 -11 -24 -22 -40 -25 -20 -4
-26 -8 -17 -13 6 -5 18 -5 25 -1 6 4 3 -2 -7 -14 -25 -29 -15 -38 24 -22 28
12 29 14 13 25 -27 20 -8 29 26 12 24 -12 29 -12 24 -1 -3 8 -11 14 -19 14
-10 0 -11 6 -2 31 11 32 6 49 -8 27z"/>
<path d="M3096 1375 c-14 -13 -26 -31 -26 -40 0 -19 1 -19 36 0 28 14 28 15 5
15 l-24 0 29 25 c16 14 24 25 18 25 -6 0 -23 -11 -38 -25z"/>
<path d="M1837 1343 c-14 -14 -6 -21 35 -27 32 -5 39 -9 28 -16 -13 -8 -12
-10 3 -10 9 0 17 5 17 10 0 6 10 10 22 10 l22 0 -23 -16 c-15 -11 -33 -14 -54
-10 -23 4 -28 3 -17 -4 21 -14 74 -12 88 2 15 15 31 1 37 -30 3 -18 -1 -22
-23 -21 -17 1 -21 3 -9 6 20 5 22 19 5 29 -6 4 -8 3 -5 -3 7 -11 -25 -30 -57
-35 -12 -2 -20 -12 -21 -25 -1 -18 1 -20 12 -12 7 6 10 15 7 20 -10 17 5 9 27
-13 12 -13 19 -18 16 -12 -5 8 2 11 18 10 14 0 25 -2 25 -2 0 -1 -18 -13 -40
-28 -23 -15 -38 -31 -35 -35 3 -5 -2 -11 -10 -15 -8 -3 -15 -11 -15 -17 0 -8
4 -9 13 0 8 6 18 7 22 3 5 -4 5 -2 1 5 -7 12 51 73 70 73 7 0 11 13 9 33 -1
17 3 35 9 39 8 6 8 8 -1 8 -7 0 -10 6 -7 14 3 8 -4 16 -17 19 -14 4 -20 11
-16 21 3 8 2 18 -3 21 -6 4 -10 1 -10 -4 0 -6 -9 -11 -20 -11 -11 0 -20 7 -20
16 0 10 -6 14 -17 10 -10 -2 -29 -8 -42 -11 -16 -5 -21 -4 -17 4 8 12 3 15 -7
4z"/>
<path d="M3060 1301 c0 -5 7 -12 16 -15 11 -4 13 -13 8 -28 -6 -21 -5 -21 15
4 28 35 27 43 -9 46 -16 1 -30 -2 -30 -7z"/>
<path d="M1725 1281 c-3 -5 -1 -12 4 -15 5 -4 13 -2 16 4 4 7 11 7 18 2 20
-15 47 -22 47 -12 0 6 -9 10 -19 10 -11 0 -23 5 -26 10 -8 13 -32 13 -40 1z"/>
<path d="M2404 1272 c-31 -29 -55 -34 -69 -15 -12 16 -13 15 -12 -10 1 -15 5
-27 9 -27 16 0 64 25 82 43 24 24 15 32 -10 9z"/>
<path d="M2602 1237 c4 -18 0 -27 -11 -30 -9 -3 -4 -5 10 -6 16 -1 29 5 33 14
3 8 0 15 -7 16 -7 0 -3 4 8 9 11 5 15 9 8 9 -6 1 -19 4 -29 8 -14 5 -16 2 -12
-20z"/>
<path d="M3469 1233 c-5 -16 -11 -33 -14 -40 -2 -7 2 -10 9 -7 16 6 38 74 25
74 -5 0 -14 -12 -20 -27z"/>
<path d="M1553 1243 c-10 -3 -10 -8 1 -19 16 -15 51 -20 41 -5 -3 6 3 9 14 8
11 0 19 -5 18 -10 -1 -5 7 -10 19 -11 13 -2 20 4 21 17 1 11 -1 17 -4 14 -3
-3 -16 -1 -30 4 -20 7 -30 6 -43 -6 -11 -10 -20 -12 -24 -7 -3 6 0 13 6 15 7
3 9 5 3 5 -5 0 -16 -2 -22 -5z"/>
<path d="M1821 1233 c-1 -12 -9 -27 -18 -32 -20 -12 -19 -13 19 -15 15 -1 24
2 21 8 -4 5 1 7 9 3 20 -7 33 34 15 45 -17 11 -29 10 -22 -2 3 -5 2 -10 -4
-10 -5 0 -12 6 -14 13 -3 6 -6 2 -6 -10z"/>
<path d="M1683 1215 c0 -10 6 -14 14 -10 8 3 17 5 19 5 2 0 4 5 4 10 0 6 -8
10 -18 10 -10 0 -19 -7 -19 -15z"/>
<path d="M2793 1199 c-7 -18 -10 -37 -6 -43 3 -6 3 -8 -2 -4 -4 4 -18 -9 -31
-28 -31 -45 -30 -58 0 -20 14 17 26 24 30 17 4 -5 -11 -22 -34 -37 -25 -17
-37 -30 -30 -34 8 -5 7 -9 -3 -13 -23 -9 -28 3 -12 27 22 30 18 37 -10 24 -14
-6 -25 -15 -25 -20 0 -5 -6 -6 -12 -3 -7 4 -5 0 4 -8 10 -8 15 -17 11 -20 -3
-4 0 -7 8 -8 8 0 24 -2 37 -5 13 -2 22 1 22 9 0 7 12 24 28 38 15 15 35 38 45
53 11 16 25 25 33 22 7 -3 16 -1 19 5 4 5 11 6 17 3 6 -4 8 -2 4 4 -3 5 -2 12
4 14 6 2 6 8 -1 18 -8 13 -11 13 -23 -2 -9 -12 -16 -14 -23 -7 -8 8 -13 7 -17
0 -14 -22 -25 -10 -19 19 7 39 1 38 -14 -1z m17 -64 c-7 -8 -17 -12 -22 -9 -6
4 -5 10 3 15 22 14 33 10 19 -6z"/>
<path d="M3637 1194 c-9 -9 4 -35 14 -28 5 3 9 12 9 20 0 14 -12 19 -23 8z"/>
<path d="M3600 1154 c0 -10 26 -51 47 -72 11 -11 13 -11 13 2 0 8 -6 19 -13
23 -7 4 -21 19 -30 33 -9 13 -17 20 -17 14z"/>
<path d="M3537 1133 c-3 -5 -1 -17 4 -28 7 -17 8 -17 8 8 1 27 -4 34 -12 20z"/>
<path d="M3736 1129 c3 -5 -1 -9 -8 -9 -8 -1 -6 -6 6 -15 26 -20 33 -19 39 4
3 14 -2 20 -19 24 -13 2 -21 0 -18 -4z"/>
<path d="M2016 1084 c-9 -23 -2 -28 13 -10 7 8 8 17 3 20 -6 3 -13 -1 -16 -10z"/>
<path d="M3634 1048 c1 -22 26 -39 26 -18 0 7 6 8 19 0 13 -7 22 -7 26 0 3 5
4 10 2 10 -3 0 -20 7 -39 15 -34 14 -35 13 -34 -7z"/>
<path d="M3730 1035 c7 -8 16 -12 21 -9 13 8 1 24 -18 24 -13 0 -13 -3 -3 -15z"/>
<path d="M2190 1002 c0 -4 4 -13 9 -20 7 -11 9 -11 14 1 3 9 -1 18 -9 21 -8 3
-14 2 -14 -2z"/>
<path d="M3435 990 c3 -5 13 -10 21 -10 8 0 12 5 9 10 -3 6 -13 10 -21 10 -8
0 -12 -4 -9 -10z"/>
<path d="M310 953 c-14 -2 -29 -9 -35 -15 -7 -6 4 -7 30 -1 54 10 84 9 195
-12 52 -9 138 -18 190 -19 52 -1 104 -5 115 -8 11 -4 45 -3 75 1 l55 9 -60 2
c-104 3 -308 19 -375 29 -102 15 -163 20 -190 14z"/>
<path d="M2294 952 c3 -6 2 -13 -3 -17 -5 -3 -9 -14 -8 -25 1 -10 4 -17 8 -14
4 2 9 -2 12 -8 2 -8 8 -9 13 -4 5 5 4 11 -3 13 -8 3 -11 14 -7 28 3 13 0 26
-7 30 -7 5 -10 4 -5 -3z"/>
<path d="M990 891 c25 -4 66 -17 92 -28 98 -44 184 -60 326 -58 73 1 135 5
139 9 3 3 -11 7 -33 7 -21 1 -58 3 -82 4 -23 2 -64 0 -90 -4 -56 -8 -169 15
-255 53 -36 16 -74 25 -100 25 l-42 -2 45 -6z"/>
<path d="M3625 728 c5 -12 2 -18 -6 -18 -18 0 -2 -13 21 -17 25 -4 25 2 -1 30
-15 17 -19 18 -14 5z"/>
<path d="M790 640 c0 -6 22 -10 49 -10 26 0 76 -9 110 -20 72 -23 249 -37 276
-23 14 8 27 5 52 -10 32 -18 56 -20 268 -24 190 -3 250 -1 326 13 154 28 557
18 829 -22 63 -9 138 -17 165 -18 28 -2 100 -19 160 -39 61 -19 144 -45 185
-56 41 -12 90 -25 109 -31 19 -5 30 -6 25 -1 -5 5 -58 24 -119 41 -60 17 -168
50 -238 72 -95 29 -138 38 -163 33 -19 -3 -34 -2 -34 3 0 11 -69 21 -75 12 -2
-4 -41 -1 -87 7 -99 15 -536 35 -628 28 -36 -2 -105 -12 -155 -21 -132 -23
-514 -12 -564 17 -22 13 -41 17 -55 12 -37 -13 -199 -3 -266 17 -78 22 -170
33 -170 20z"/>
<path d="M3390 391 c0 -7 40 -11 123 -11 87 -1 154 -7 235 -24 61 -13 112 -20
112 -17 0 4 -51 17 -112 29 -134 25 -358 40 -358 23z"/>
<path d="M3945 340 c-2 -3 32 -13 76 -21 43 -8 79 -12 79 -8 0 9 -150 38 -155
29z"/>
</g>
</svg>
